<svg width="1163" height="328" viewBox="0 0 1163 328" fill="none" xmlns="http://www.w3.org/2000/svg">
<path d="M55.123 320.717V315.18H56.1543V320.717C56.1543 321.233 56.0487 321.668 55.8374 322.022C55.6261 322.377 55.3343 322.647 54.9619 322.833C54.5931 323.016 54.1688 323.107 53.689 323.107C53.2091 323.107 52.783 323.025 52.4106 322.86C52.0382 322.696 51.7464 322.445 51.5352 322.108C51.3239 321.772 51.2183 321.347 51.2183 320.835H52.2549C52.2549 321.165 52.3158 321.435 52.4375 321.646C52.5592 321.858 52.7275 322.014 52.9424 322.114C53.1608 322.214 53.4097 322.264 53.689 322.264C53.9611 322.264 54.2046 322.207 54.4194 322.092C54.6379 321.974 54.8097 321.8 54.9351 321.571C55.0604 321.339 55.123 321.054 55.123 320.717ZM61.187 322.006V319.015C61.187 318.785 61.1405 318.587 61.0474 318.418C60.9578 318.247 60.8218 318.114 60.6392 318.021C60.4565 317.928 60.231 317.881 59.9624 317.881C59.7118 317.881 59.4915 317.924 59.3018 318.01C59.1156 318.096 58.9688 318.209 58.8613 318.349C58.7575 318.488 58.7056 318.639 58.7056 318.8H57.7119C57.7119 318.592 57.7656 318.386 57.873 318.182C57.9805 317.978 58.1344 317.794 58.335 317.629C58.5391 317.461 58.7826 317.328 59.0654 317.231C59.3519 317.131 59.6706 317.081 60.0215 317.081C60.444 317.081 60.8164 317.153 61.1387 317.296C61.4645 317.439 61.7188 317.656 61.9014 317.946C62.0876 318.232 62.1807 318.592 62.1807 319.025V321.732C62.1807 321.926 62.1968 322.132 62.229 322.35C62.2648 322.569 62.3167 322.757 62.3848 322.914V323H61.3481C61.298 322.885 61.2586 322.733 61.23 322.543C61.2013 322.35 61.187 322.171 61.187 322.006ZM61.3589 319.477L61.3696 320.175H60.3652C60.0824 320.175 59.8299 320.198 59.6079 320.245C59.3859 320.288 59.1997 320.354 59.0493 320.443C58.8989 320.533 58.7843 320.646 58.7056 320.782C58.6268 320.914 58.5874 321.07 58.5874 321.249C58.5874 321.432 58.6286 321.598 58.7109 321.749C58.7933 321.899 58.9168 322.019 59.0815 322.108C59.2498 322.194 59.4557 322.237 59.6992 322.237C60.0036 322.237 60.2721 322.173 60.5049 322.044C60.7376 321.915 60.922 321.757 61.0581 321.571C61.1978 321.385 61.2729 321.204 61.2837 321.029L61.708 321.507C61.6829 321.657 61.6149 321.824 61.5039 322.006C61.3929 322.189 61.2443 322.364 61.0581 322.533C60.8755 322.697 60.6571 322.835 60.4028 322.946C60.1522 323.054 59.8693 323.107 59.5542 323.107C59.1603 323.107 58.8148 323.03 58.5176 322.876C58.224 322.722 57.9948 322.517 57.8301 322.259C57.6689 321.997 57.5884 321.706 57.5884 321.383C57.5884 321.072 57.6493 320.798 57.771 320.562C57.8927 320.322 58.0682 320.123 58.2974 319.965C58.5265 319.804 58.8022 319.682 59.1245 319.6C59.4468 319.518 59.8066 319.477 60.2041 319.477H61.3589ZM64.7373 318.429V323H63.7437V317.188H64.6836L64.7373 318.429ZM64.501 319.874L64.0874 319.858C64.091 319.46 64.1501 319.093 64.2646 318.757C64.3792 318.417 64.5404 318.121 64.748 317.871C64.9557 317.62 65.2028 317.427 65.4893 317.291C65.7793 317.151 66.0998 317.081 66.4507 317.081C66.7371 317.081 66.995 317.12 67.2241 317.199C67.4533 317.274 67.6484 317.396 67.8096 317.564C67.9743 317.733 68.0996 317.951 68.1855 318.22C68.2715 318.485 68.3145 318.809 68.3145 319.192V323H67.3154V319.181C67.3154 318.877 67.2707 318.633 67.1812 318.451C67.0916 318.264 66.9609 318.13 66.7891 318.048C66.6172 317.962 66.4059 317.919 66.1553 317.919C65.9082 317.919 65.6826 317.971 65.4785 318.075C65.278 318.179 65.1043 318.322 64.9575 318.504C64.8143 318.687 64.7015 318.896 64.6191 319.133C64.5404 319.366 64.501 319.613 64.501 319.874Z" fill="black" fill-opacity="0.66"/>
<path d="M8.7251 291.601H9.43408C9.78141 291.601 10.0679 291.544 10.2935 291.429C10.5226 291.311 10.6927 291.152 10.8037 290.951C10.9183 290.747 10.9756 290.518 10.9756 290.264C10.9756 289.963 10.9255 289.71 10.8252 289.506C10.7249 289.302 10.5745 289.148 10.374 289.044C10.1735 288.941 9.91927 288.889 9.61133 288.889C9.33203 288.889 9.08496 288.944 8.87012 289.055C8.65885 289.163 8.49235 289.317 8.37061 289.517C8.25244 289.718 8.19336 289.954 8.19336 290.226H7.19971C7.19971 289.829 7.29997 289.467 7.50049 289.141C7.70101 288.815 7.9821 288.556 8.34375 288.362C8.70898 288.169 9.13151 288.072 9.61133 288.072C10.084 288.072 10.4976 288.156 10.8521 288.325C11.2065 288.489 11.4823 288.736 11.6792 289.066C11.8761 289.392 11.9746 289.798 11.9746 290.285C11.9746 290.482 11.9281 290.693 11.835 290.919C11.7454 291.141 11.604 291.349 11.4106 291.542C11.2209 291.735 10.9738 291.895 10.6694 292.02C10.3651 292.142 9.99984 292.203 9.57373 292.203H8.7251V291.601ZM8.7251 292.417V291.821H9.57373C10.0715 291.821 10.4832 291.88 10.8091 291.999C11.1349 292.117 11.391 292.274 11.5771 292.471C11.7669 292.668 11.8994 292.885 11.9746 293.121C12.0534 293.354 12.0928 293.587 12.0928 293.819C12.0928 294.185 12.0301 294.509 11.9048 294.792C11.783 295.074 11.6094 295.314 11.3838 295.511C11.1618 295.708 10.9004 295.857 10.5996 295.957C10.2988 296.057 9.97119 296.107 9.6167 296.107C9.27653 296.107 8.95605 296.059 8.65527 295.962C8.35807 295.866 8.09489 295.726 7.86572 295.543C7.63656 295.357 7.45752 295.13 7.32861 294.861C7.19971 294.589 7.13525 294.279 7.13525 293.932H8.12891C8.12891 294.204 8.18799 294.442 8.30615 294.646C8.4279 294.851 8.59977 295.01 8.82178 295.125C9.04736 295.236 9.31234 295.291 9.6167 295.291C9.92106 295.291 10.1825 295.239 10.4009 295.135C10.6229 295.028 10.793 294.867 10.9111 294.652C11.0329 294.437 11.0938 294.167 11.0938 293.841C11.0938 293.515 11.0257 293.248 10.8896 293.041C10.7536 292.829 10.5602 292.674 10.3096 292.573C10.0625 292.469 9.77067 292.417 9.43408 292.417H8.7251ZM18.3716 291.467V292.659C18.3716 293.3 18.3143 293.841 18.1997 294.281C18.0851 294.722 17.9204 295.076 17.7056 295.345C17.4907 295.613 17.2311 295.808 16.9268 295.93C16.626 296.048 16.2858 296.107 15.9062 296.107C15.6055 296.107 15.328 296.07 15.0737 295.995C14.8195 295.919 14.5903 295.799 14.3862 295.635C14.1857 295.466 14.0138 295.248 13.8706 294.979C13.7274 294.711 13.6182 294.385 13.543 294.002C13.4678 293.619 13.4302 293.171 13.4302 292.659V291.467C13.4302 290.826 13.4875 290.289 13.6021 289.855C13.7202 289.422 13.8867 289.075 14.1016 288.813C14.3164 288.549 14.5742 288.359 14.875 288.244C15.1794 288.13 15.5195 288.072 15.8955 288.072C16.1999 288.072 16.4792 288.11 16.7334 288.185C16.9912 288.257 17.2204 288.373 17.4209 288.534C17.6214 288.692 17.7915 288.903 17.9312 289.168C18.0744 289.429 18.1836 289.75 18.2588 290.129C18.334 290.509 18.3716 290.955 18.3716 291.467ZM17.3726 292.82V291.3C17.3726 290.949 17.3511 290.641 17.3081 290.376C17.2687 290.108 17.2096 289.879 17.1309 289.689C17.0521 289.499 16.9518 289.345 16.8301 289.227C16.7119 289.109 16.5741 289.023 16.4165 288.969C16.2625 288.912 16.0889 288.883 15.8955 288.883C15.6592 288.883 15.4497 288.928 15.2671 289.018C15.0845 289.104 14.9305 289.241 14.8052 289.431C14.6834 289.621 14.5903 289.87 14.5259 290.178C14.4614 290.486 14.4292 290.86 14.4292 291.3V292.82C14.4292 293.171 14.4489 293.481 14.4883 293.75C14.5312 294.018 14.5939 294.251 14.6763 294.448C14.7586 294.641 14.8589 294.8 14.9771 294.926C15.0952 295.051 15.2313 295.144 15.3853 295.205C15.5428 295.262 15.7165 295.291 15.9062 295.291C16.1497 295.291 16.3628 295.244 16.5454 295.151C16.728 295.058 16.8802 294.913 17.002 294.716C17.1273 294.516 17.2204 294.26 17.2812 293.948C17.3421 293.633 17.3726 293.257 17.3726 292.82ZM24.5591 291.467V292.659C24.5591 293.3 24.5018 293.841 24.3872 294.281C24.2726 294.722 24.1079 295.076 23.8931 295.345C23.6782 295.613 23.4186 295.808 23.1143 295.93C22.8135 296.048 22.4733 296.107 22.0938 296.107C21.793 296.107 21.5155 296.07 21.2612 295.995C21.007 295.919 20.7778 295.799 20.5737 295.635C20.3732 295.466 20.2013 295.248 20.0581 294.979C19.9149 294.711 19.8057 294.385 19.7305 294.002C19.6553 293.619 19.6177 293.171 19.6177 292.659V291.467C19.6177 290.826 19.675 290.289 19.7896 289.855C19.9077 289.422 20.0742 289.075 20.2891 288.813C20.5039 288.549 20.7617 288.359 21.0625 288.244C21.3669 288.13 21.707 288.072 22.083 288.072C22.3874 288.072 22.6667 288.11 22.9209 288.185C23.1787 288.257 23.4079 288.373 23.6084 288.534C23.8089 288.692 23.979 288.903 24.1187 289.168C24.2619 289.429 24.3711 289.75 24.4463 290.129C24.5215 290.509 24.5591 290.955 24.5591 291.467ZM23.5601 292.82V291.3C23.5601 290.949 23.5386 290.641 23.4956 290.376C23.4562 290.108 23.3971 289.879 23.3184 289.689C23.2396 289.499 23.1393 289.345 23.0176 289.227C22.8994 289.109 22.7616 289.023 22.604 288.969C22.45 288.912 22.2764 288.883 22.083 288.883C21.8467 288.883 21.6372 288.928 21.4546 289.018C21.272 289.104 21.118 289.241 20.9927 289.431C20.8709 289.621 20.7778 289.87 20.7134 290.178C20.6489 290.486 20.6167 290.86 20.6167 291.3V292.82C20.6167 293.171 20.6364 293.481 20.6758 293.75C20.7188 294.018 20.7814 294.251 20.8638 294.448C20.9461 294.641 21.0464 294.8 21.1646 294.926C21.2827 295.051 21.4188 295.144 21.5728 295.205C21.7303 295.262 21.904 295.291 22.0938 295.291C22.3372 295.291 22.5503 295.244 22.7329 295.151C22.9155 295.058 23.0677 294.913 23.1895 294.716C23.3148 294.516 23.4079 294.26 23.4688 293.948C23.5296 293.633 23.5601 293.257 23.5601 292.82ZM30.7466 291.467V292.659C30.7466 293.3 30.6893 293.841 30.5747 294.281C30.4601 294.722 30.2954 295.076 30.0806 295.345C29.8657 295.613 29.6061 295.808 29.3018 295.93C29.001 296.048 28.6608 296.107 28.2812 296.107C27.9805 296.107 27.703 296.07 27.4487 295.995C27.1945 295.919 26.9653 295.799 26.7612 295.635C26.5607 295.466 26.3888 295.248 26.2456 294.979C26.1024 294.711 25.9932 294.385 25.918 294.002C25.8428 293.619 25.8052 293.171 25.8052 292.659V291.467C25.8052 290.826 25.8625 290.289 25.9771 289.855C26.0952 289.422 26.2617 289.075 26.4766 288.813C26.6914 288.549 26.9492 288.359 27.25 288.244C27.5544 288.13 27.8945 288.072 28.2705 288.072C28.5749 288.072 28.8542 288.11 29.1084 288.185C29.3662 288.257 29.5954 288.373 29.7959 288.534C29.9964 288.692 30.1665 288.903 30.3062 289.168C30.4494 289.429 30.5586 289.75 30.6338 290.129C30.709 290.509 30.7466 290.955 30.7466 291.467ZM29.7476 292.82V291.3C29.7476 290.949 29.7261 290.641 29.6831 290.376C29.6437 290.108 29.5846 289.879 29.5059 289.689C29.4271 289.499 29.3268 289.345 29.2051 289.227C29.0869 289.109 28.9491 289.023 28.7915 288.969C28.6375 288.912 28.4639 288.883 28.2705 288.883C28.0342 288.883 27.8247 288.928 27.6421 289.018C27.4595 289.104 27.3055 289.241 27.1802 289.431C27.0584 289.621 26.9653 289.87 26.9009 290.178C26.8364 290.486 26.8042 290.86 26.8042 291.3V292.82C26.8042 293.171 26.8239 293.481 26.8633 293.75C26.9062 294.018 26.9689 294.251 27.0513 294.448C27.1336 294.641 27.2339 294.8 27.3521 294.926C27.4702 295.051 27.6063 295.144 27.7603 295.205C27.9178 295.262 28.0915 295.291 28.2812 295.291C28.5247 295.291 28.7378 295.244 28.9204 295.151C29.103 295.058 29.2552 294.913 29.377 294.716C29.5023 294.516 29.5954 294.26 29.6562 293.948C29.7171 293.633 29.7476 293.257 29.7476 292.82Z" fill="black" fill-opacity="0.66"/>
<path d="M11.7251 245.601H12.4341C12.7814 245.601 13.0679 245.544 13.2935 245.429C13.5226 245.311 13.6927 245.152 13.8037 244.951C13.9183 244.747 13.9756 244.518 13.9756 244.264C13.9756 243.963 13.9255 243.71 13.8252 243.506C13.7249 243.302 13.5745 243.148 13.374 243.044C13.1735 242.941 12.9193 242.889 12.6113 242.889C12.332 242.889 12.085 242.944 11.8701 243.055C11.6589 243.163 11.4924 243.317 11.3706 243.517C11.2524 243.718 11.1934 243.954 11.1934 244.226H10.1997C10.1997 243.829 10.3 243.467 10.5005 243.141C10.701 242.815 10.9821 242.556 11.3438 242.362C11.709 242.169 12.1315 242.072 12.6113 242.072C13.084 242.072 13.4976 242.156 13.8521 242.325C14.2065 242.489 14.4823 242.736 14.6792 243.066C14.8761 243.392 14.9746 243.798 14.9746 244.285C14.9746 244.482 14.9281 244.693 14.835 244.919C14.7454 245.141 14.604 245.349 14.4106 245.542C14.2209 245.735 13.9738 245.895 13.6694 246.02C13.3651 246.142 12.9998 246.203 12.5737 246.203H11.7251V245.601ZM11.7251 246.417V245.821H12.5737C13.0715 245.821 13.4832 245.88 13.8091 245.999C14.1349 246.117 14.391 246.274 14.5771 246.471C14.7669 246.668 14.8994 246.885 14.9746 247.121C15.0534 247.354 15.0928 247.587 15.0928 247.819C15.0928 248.185 15.0301 248.509 14.9048 248.792C14.783 249.074 14.6094 249.314 14.3838 249.511C14.1618 249.708 13.9004 249.857 13.5996 249.957C13.2988 250.057 12.9712 250.107 12.6167 250.107C12.2765 250.107 11.9561 250.059 11.6553 249.962C11.3581 249.866 11.0949 249.726 10.8657 249.543C10.6366 249.357 10.4575 249.13 10.3286 248.861C10.1997 248.589 10.1353 248.279 10.1353 247.932H11.1289C11.1289 248.204 11.188 248.442 11.3062 248.646C11.4279 248.851 11.5998 249.01 11.8218 249.125C12.0474 249.236 12.3123 249.291 12.6167 249.291C12.9211 249.291 13.1825 249.239 13.4009 249.135C13.6229 249.028 13.793 248.867 13.9111 248.652C14.0329 248.437 14.0938 248.167 14.0938 247.841C14.0938 247.515 14.0257 247.248 13.8896 247.041C13.7536 246.829 13.5602 246.674 13.3096 246.573C13.0625 246.469 12.7707 246.417 12.4341 246.417H11.7251ZM17.7192 246.278L16.9243 246.074L17.3164 242.18H21.3286V243.098H18.1597L17.9233 245.225C18.0666 245.143 18.2474 245.066 18.4658 244.994C18.6878 244.923 18.9421 244.887 19.2285 244.887C19.5902 244.887 19.9142 244.949 20.2007 245.075C20.4871 245.196 20.7306 245.372 20.9312 245.601C21.1353 245.83 21.291 246.106 21.3984 246.428C21.5059 246.75 21.5596 247.11 21.5596 247.508C21.5596 247.884 21.5076 248.229 21.4038 248.544C21.3035 248.86 21.1514 249.135 20.9473 249.372C20.7432 249.604 20.4854 249.785 20.1738 249.914C19.8659 250.043 19.5024 250.107 19.0835 250.107C18.7684 250.107 18.4694 250.064 18.1865 249.979C17.9072 249.889 17.6566 249.755 17.4346 249.576C17.2161 249.393 17.0371 249.167 16.8975 248.899C16.7614 248.627 16.6755 248.308 16.6396 247.943H17.585C17.6279 248.236 17.7139 248.484 17.8428 248.684C17.9717 248.885 18.14 249.037 18.3477 249.141C18.5589 249.241 18.8042 249.291 19.0835 249.291C19.3198 249.291 19.5293 249.25 19.7119 249.167C19.8945 249.085 20.0485 248.967 20.1738 248.813C20.2992 248.659 20.394 248.473 20.4585 248.254C20.5265 248.036 20.5605 247.791 20.5605 247.519C20.5605 247.271 20.5265 247.042 20.4585 246.831C20.3905 246.62 20.2884 246.435 20.1523 246.278C20.0199 246.12 19.8569 245.999 19.6636 245.913C19.4702 245.823 19.2482 245.778 18.9976 245.778C18.6646 245.778 18.4121 245.823 18.2402 245.913C18.0719 246.002 17.8983 246.124 17.7192 246.278ZM27.5591 245.467V246.659C27.5591 247.3 27.5018 247.841 27.3872 248.281C27.2726 248.722 27.1079 249.076 26.8931 249.345C26.6782 249.613 26.4186 249.808 26.1143 249.93C25.8135 250.048 25.4733 250.107 25.0938 250.107C24.793 250.107 24.5155 250.07 24.2612 249.995C24.007 249.919 23.7778 249.799 23.5737 249.635C23.3732 249.466 23.2013 249.248 23.0581 248.979C22.9149 248.711 22.8057 248.385 22.7305 248.002C22.6553 247.619 22.6177 247.171 22.6177 246.659V245.467C22.6177 244.826 22.675 244.289 22.7896 243.855C22.9077 243.422 23.0742 243.075 23.2891 242.813C23.5039 242.549 23.7617 242.359 24.0625 242.244C24.3669 242.13 24.707 242.072 25.083 242.072C25.3874 242.072 25.6667 242.11 25.9209 242.185C26.1787 242.257 26.4079 242.373 26.6084 242.534C26.8089 242.692 26.979 242.903 27.1187 243.168C27.2619 243.429 27.3711 243.75 27.4463 244.129C27.5215 244.509 27.5591 244.955 27.5591 245.467ZM26.5601 246.82V245.3C26.5601 244.949 26.5386 244.641 26.4956 244.376C26.4562 244.108 26.3971 243.879 26.3184 243.689C26.2396 243.499 26.1393 243.345 26.0176 243.227C25.8994 243.109 25.7616 243.023 25.604 242.969C25.45 242.912 25.2764 242.883 25.083 242.883C24.8467 242.883 24.6372 242.928 24.4546 243.018C24.272 243.104 24.118 243.241 23.9927 243.431C23.8709 243.621 23.7778 243.87 23.7134 244.178C23.6489 244.486 23.6167 244.86 23.6167 245.3V246.82C23.6167 247.171 23.6364 247.481 23.6758 247.75C23.7188 248.018 23.7814 248.251 23.8638 248.448C23.9461 248.641 24.0464 248.8 24.1646 248.926C24.2827 249.051 24.4188 249.144 24.5728 249.205C24.7303 249.262 24.904 249.291 25.0938 249.291C25.3372 249.291 25.5503 249.244 25.7329 249.151C25.9155 249.058 26.0677 248.913 26.1895 248.716C26.3148 248.516 26.4079 248.26 26.4688 247.948C26.5296 247.633 26.5601 247.257 26.5601 246.82ZM33.7466 245.467V246.659C33.7466 247.3 33.6893 247.841 33.5747 248.281C33.4601 248.722 33.2954 249.076 33.0806 249.345C32.8657 249.613 32.6061 249.808 32.3018 249.93C32.001 250.048 31.6608 250.107 31.2812 250.107C30.9805 250.107 30.703 250.07 30.4487 249.995C30.1945 249.919 29.9653 249.799 29.7612 249.635C29.5607 249.466 29.3888 249.248 29.2456 248.979C29.1024 248.711 28.9932 248.385 28.918 248.002C28.8428 247.619 28.8052 247.171 28.8052 246.659V245.467C28.8052 244.826 28.8625 244.289 28.9771 243.855C29.0952 243.422 29.2617 243.075 29.4766 242.813C29.6914 242.549 29.9492 242.359 30.25 242.244C30.5544 242.13 30.8945 242.072 31.2705 242.072C31.5749 242.072 31.8542 242.11 32.1084 242.185C32.3662 242.257 32.5954 242.373 32.7959 242.534C32.9964 242.692 33.1665 242.903 33.3062 243.168C33.4494 243.429 33.5586 243.75 33.6338 244.129C33.709 244.509 33.7466 244.955 33.7466 245.467ZM32.7476 246.82V245.3C32.7476 244.949 32.7261 244.641 32.6831 244.376C32.6437 244.108 32.5846 243.879 32.5059 243.689C32.4271 243.499 32.3268 243.345 32.2051 243.227C32.0869 243.109 31.9491 243.023 31.7915 242.969C31.6375 242.912 31.4639 242.883 31.2705 242.883C31.0342 242.883 30.8247 242.928 30.6421 243.018C30.4595 243.104 30.3055 243.241 30.1802 243.431C30.0584 243.621 29.9653 243.87 29.9009 244.178C29.8364 244.486 29.8042 244.86 29.8042 245.3V246.82C29.8042 247.171 29.8239 247.481 29.8633 247.75C29.9062 248.018 29.9689 248.251 30.0513 248.448C30.1336 248.641 30.2339 248.8 30.3521 248.926C30.4702 249.051 30.6063 249.144 30.7603 249.205C30.9178 249.262 31.0915 249.291 31.2812 249.291C31.5247 249.291 31.7378 249.244 31.9204 249.151C32.103 249.058 32.2552 248.913 32.377 248.716C32.5023 248.516 32.5954 248.26 32.6562 247.948C32.7171 247.633 32.7476 247.257 32.7476 246.82Z" fill="black" fill-opacity="0.66"/>
<path d="M15.5601 197.368V198.185H9.90967V197.599L13.4116 192.18H14.2227L13.3525 193.748L11.0376 197.368H15.5601ZM14.4697 192.18V200H13.4761V192.18H14.4697ZM21.3716 195.467V196.659C21.3716 197.3 21.3143 197.841 21.1997 198.281C21.0851 198.722 20.9204 199.076 20.7056 199.345C20.4907 199.613 20.2311 199.808 19.9268 199.93C19.626 200.048 19.2858 200.107 18.9062 200.107C18.6055 200.107 18.328 200.07 18.0737 199.995C17.8195 199.919 17.5903 199.799 17.3862 199.635C17.1857 199.466 17.0138 199.248 16.8706 198.979C16.7274 198.711 16.6182 198.385 16.543 198.002C16.4678 197.619 16.4302 197.171 16.4302 196.659V195.467C16.4302 194.826 16.4875 194.289 16.6021 193.855C16.7202 193.422 16.8867 193.075 17.1016 192.813C17.3164 192.549 17.5742 192.359 17.875 192.244C18.1794 192.13 18.5195 192.072 18.8955 192.072C19.1999 192.072 19.4792 192.11 19.7334 192.185C19.9912 192.257 20.2204 192.373 20.4209 192.534C20.6214 192.692 20.7915 192.903 20.9312 193.168C21.0744 193.429 21.1836 193.75 21.2588 194.129C21.334 194.509 21.3716 194.955 21.3716 195.467ZM20.3726 196.82V195.3C20.3726 194.949 20.3511 194.641 20.3081 194.376C20.2687 194.108 20.2096 193.879 20.1309 193.689C20.0521 193.499 19.9518 193.345 19.8301 193.227C19.7119 193.109 19.5741 193.023 19.4165 192.969C19.2625 192.912 19.0889 192.883 18.8955 192.883C18.6592 192.883 18.4497 192.928 18.2671 193.018C18.0845 193.104 17.9305 193.241 17.8052 193.431C17.6834 193.621 17.5903 193.87 17.5259 194.178C17.4614 194.486 17.4292 194.86 17.4292 195.3V196.82C17.4292 197.171 17.4489 197.481 17.4883 197.75C17.5312 198.018 17.5939 198.251 17.6763 198.448C17.7586 198.641 17.8589 198.8 17.9771 198.926C18.0952 199.051 18.2313 199.144 18.3853 199.205C18.5428 199.262 18.7165 199.291 18.9062 199.291C19.1497 199.291 19.3628 199.244 19.5454 199.151C19.728 199.058 19.8802 198.913 20.002 198.716C20.1273 198.516 20.2204 198.26 20.2812 197.948C20.3421 197.633 20.3726 197.257 20.3726 196.82ZM27.5591 195.467V196.659C27.5591 197.3 27.5018 197.841 27.3872 198.281C27.2726 198.722 27.1079 199.076 26.8931 199.345C26.6782 199.613 26.4186 199.808 26.1143 199.93C25.8135 200.048 25.4733 200.107 25.0938 200.107C24.793 200.107 24.5155 200.07 24.2612 199.995C24.007 199.919 23.7778 199.799 23.5737 199.635C23.3732 199.466 23.2013 199.248 23.0581 198.979C22.9149 198.711 22.8057 198.385 22.7305 198.002C22.6553 197.619 22.6177 197.171 22.6177 196.659V195.467C22.6177 194.826 22.675 194.289 22.7896 193.855C22.9077 193.422 23.0742 193.075 23.2891 192.813C23.5039 192.549 23.7617 192.359 24.0625 192.244C24.3669 192.13 24.707 192.072 25.083 192.072C25.3874 192.072 25.6667 192.11 25.9209 192.185C26.1787 192.257 26.4079 192.373 26.6084 192.534C26.8089 192.692 26.979 192.903 27.1187 193.168C27.2619 193.429 27.3711 193.75 27.4463 194.129C27.5215 194.509 27.5591 194.955 27.5591 195.467ZM26.5601 196.82V195.3C26.5601 194.949 26.5386 194.641 26.4956 194.376C26.4562 194.108 26.3971 193.879 26.3184 193.689C26.2396 193.499 26.1393 193.345 26.0176 193.227C25.8994 193.109 25.7616 193.023 25.604 192.969C25.45 192.912 25.2764 192.883 25.083 192.883C24.8467 192.883 24.6372 192.928 24.4546 193.018C24.272 193.104 24.118 193.241 23.9927 193.431C23.8709 193.621 23.7778 193.87 23.7134 194.178C23.6489 194.486 23.6167 194.86 23.6167 195.3V196.82C23.6167 197.171 23.6364 197.481 23.6758 197.75C23.7188 198.018 23.7814 198.251 23.8638 198.448C23.9461 198.641 24.0464 198.8 24.1646 198.926C24.2827 199.051 24.4188 199.144 24.5728 199.205C24.7303 199.262 24.904 199.291 25.0938 199.291C25.3372 199.291 25.5503 199.244 25.7329 199.151C25.9155 199.058 26.0677 198.913 26.1895 198.716C26.3148 198.516 26.4079 198.26 26.4688 197.948C26.5296 197.633 26.5601 197.257 26.5601 196.82ZM33.7466 195.467V196.659C33.7466 197.3 33.6893 197.841 33.5747 198.281C33.4601 198.722 33.2954 199.076 33.0806 199.345C32.8657 199.613 32.6061 199.808 32.3018 199.93C32.001 200.048 31.6608 200.107 31.2812 200.107C30.9805 200.107 30.703 200.07 30.4487 199.995C30.1945 199.919 29.9653 199.799 29.7612 199.635C29.5607 199.466 29.3888 199.248 29.2456 198.979C29.1024 198.711 28.9932 198.385 28.918 198.002C28.8428 197.619 28.8052 197.171 28.8052 196.659V195.467C28.8052 194.826 28.8625 194.289 28.9771 193.855C29.0952 193.422 29.2617 193.075 29.4766 192.813C29.6914 192.549 29.9492 192.359 30.25 192.244C30.5544 192.13 30.8945 192.072 31.2705 192.072C31.5749 192.072 31.8542 192.11 32.1084 192.185C32.3662 192.257 32.5954 192.373 32.7959 192.534C32.9964 192.692 33.1665 192.903 33.3062 193.168C33.4494 193.429 33.5586 193.75 33.6338 194.129C33.709 194.509 33.7466 194.955 33.7466 195.467ZM32.7476 196.82V195.3C32.7476 194.949 32.7261 194.641 32.6831 194.376C32.6437 194.108 32.5846 193.879 32.5059 193.689C32.4271 193.499 32.3268 193.345 32.2051 193.227C32.0869 193.109 31.9491 193.023 31.7915 192.969C31.6375 192.912 31.4639 192.883 31.2705 192.883C31.0342 192.883 30.8247 192.928 30.6421 193.018C30.4595 193.104 30.3055 193.241 30.1802 193.431C30.0584 193.621 29.9653 193.87 29.9009 194.178C29.8364 194.486 29.8042 194.86 29.8042 195.3V196.82C29.8042 197.171 29.8239 197.481 29.8633 197.75C29.9062 198.018 29.9689 198.251 30.0513 198.448C30.1336 198.641 30.2339 198.8 30.3521 198.926C30.4702 199.051 30.6063 199.144 30.7603 199.205C30.9178 199.262 31.0915 199.291 31.2812 199.291C31.5247 199.291 31.7378 199.244 31.9204 199.151C32.103 199.058 32.2552 198.913 32.377 198.716C32.5023 198.516 32.5954 198.26 32.6562 197.948C32.7171 197.633 32.7476 197.257 32.7476 196.82Z" fill="black" fill-opacity="0.66"/>
<path d="M15.5601 149.368V150.185H9.90967V149.599L13.4116 144.18H14.2227L13.3525 145.748L11.0376 149.368H15.5601ZM14.4697 144.18V152H13.4761V144.18H14.4697ZM17.7192 148.278L16.9243 148.074L17.3164 144.18H21.3286V145.098H18.1597L17.9233 147.225C18.0666 147.143 18.2474 147.066 18.4658 146.994C18.6878 146.923 18.9421 146.887 19.2285 146.887C19.5902 146.887 19.9142 146.949 20.2007 147.075C20.4871 147.196 20.7306 147.372 20.9312 147.601C21.1353 147.83 21.291 148.106 21.3984 148.428C21.5059 148.75 21.5596 149.11 21.5596 149.508C21.5596 149.884 21.5076 150.229 21.4038 150.544C21.3035 150.86 21.1514 151.135 20.9473 151.372C20.7432 151.604 20.4854 151.785 20.1738 151.914C19.8659 152.043 19.5024 152.107 19.0835 152.107C18.7684 152.107 18.4694 152.064 18.1865 151.979C17.9072 151.889 17.6566 151.755 17.4346 151.576C17.2161 151.393 17.0371 151.167 16.8975 150.899C16.7614 150.627 16.6755 150.308 16.6396 149.943H17.585C17.6279 150.236 17.7139 150.484 17.8428 150.684C17.9717 150.885 18.14 151.037 18.3477 151.141C18.5589 151.241 18.8042 151.291 19.0835 151.291C19.3198 151.291 19.5293 151.25 19.7119 151.167C19.8945 151.085 20.0485 150.967 20.1738 150.813C20.2992 150.659 20.394 150.473 20.4585 150.254C20.5265 150.036 20.5605 149.791 20.5605 149.519C20.5605 149.271 20.5265 149.042 20.4585 148.831C20.3905 148.62 20.2884 148.435 20.1523 148.278C20.0199 148.12 19.8569 147.999 19.6636 147.913C19.4702 147.823 19.2482 147.778 18.9976 147.778C18.6646 147.778 18.4121 147.823 18.2402 147.913C18.0719 148.002 17.8983 148.124 17.7192 148.278ZM27.5591 147.467V148.659C27.5591 149.3 27.5018 149.841 27.3872 150.281C27.2726 150.722 27.1079 151.076 26.8931 151.345C26.6782 151.613 26.4186 151.808 26.1143 151.93C25.8135 152.048 25.4733 152.107 25.0938 152.107C24.793 152.107 24.5155 152.07 24.2612 151.995C24.007 151.919 23.7778 151.799 23.5737 151.635C23.3732 151.466 23.2013 151.248 23.0581 150.979C22.9149 150.711 22.8057 150.385 22.7305 150.002C22.6553 149.619 22.6177 149.171 22.6177 148.659V147.467C22.6177 146.826 22.675 146.289 22.7896 145.855C22.9077 145.422 23.0742 145.075 23.2891 144.813C23.5039 144.549 23.7617 144.359 24.0625 144.244C24.3669 144.13 24.707 144.072 25.083 144.072C25.3874 144.072 25.6667 144.11 25.9209 144.185C26.1787 144.257 26.4079 144.373 26.6084 144.534C26.8089 144.692 26.979 144.903 27.1187 145.168C27.2619 145.429 27.3711 145.75 27.4463 146.129C27.5215 146.509 27.5591 146.955 27.5591 147.467ZM26.5601 148.82V147.3C26.5601 146.949 26.5386 146.641 26.4956 146.376C26.4562 146.108 26.3971 145.879 26.3184 145.689C26.2396 145.499 26.1393 145.345 26.0176 145.227C25.8994 145.109 25.7616 145.023 25.604 144.969C25.45 144.912 25.2764 144.883 25.083 144.883C24.8467 144.883 24.6372 144.928 24.4546 145.018C24.272 145.104 24.118 145.241 23.9927 145.431C23.8709 145.621 23.7778 145.87 23.7134 146.178C23.6489 146.486 23.6167 146.86 23.6167 147.3V148.82C23.6167 149.171 23.6364 149.481 23.6758 149.75C23.7188 150.018 23.7814 150.251 23.8638 150.448C23.9461 150.641 24.0464 150.8 24.1646 150.926C24.2827 151.051 24.4188 151.144 24.5728 151.205C24.7303 151.262 24.904 151.291 25.0938 151.291C25.3372 151.291 25.5503 151.244 25.7329 151.151C25.9155 151.058 26.0677 150.913 26.1895 150.716C26.3148 150.516 26.4079 150.26 26.4688 149.948C26.5296 149.633 26.5601 149.257 26.5601 148.82ZM33.7466 147.467V148.659C33.7466 149.3 33.6893 149.841 33.5747 150.281C33.4601 150.722 33.2954 151.076 33.0806 151.345C32.8657 151.613 32.6061 151.808 32.3018 151.93C32.001 152.048 31.6608 152.107 31.2812 152.107C30.9805 152.107 30.703 152.07 30.4487 151.995C30.1945 151.919 29.9653 151.799 29.7612 151.635C29.5607 151.466 29.3888 151.248 29.2456 150.979C29.1024 150.711 28.9932 150.385 28.918 150.002C28.8428 149.619 28.8052 149.171 28.8052 148.659V147.467C28.8052 146.826 28.8625 146.289 28.9771 145.855C29.0952 145.422 29.2617 145.075 29.4766 144.813C29.6914 144.549 29.9492 144.359 30.25 144.244C30.5544 144.13 30.8945 144.072 31.2705 144.072C31.5749 144.072 31.8542 144.11 32.1084 144.185C32.3662 144.257 32.5954 144.373 32.7959 144.534C32.9964 144.692 33.1665 144.903 33.3062 145.168C33.4494 145.429 33.5586 145.75 33.6338 146.129C33.709 146.509 33.7466 146.955 33.7466 147.467ZM32.7476 148.82V147.3C32.7476 146.949 32.7261 146.641 32.6831 146.376C32.6437 146.108 32.5846 145.879 32.5059 145.689C32.4271 145.499 32.3268 145.345 32.2051 145.227C32.0869 145.109 31.9491 145.023 31.7915 144.969C31.6375 144.912 31.4639 144.883 31.2705 144.883C31.0342 144.883 30.8247 144.928 30.6421 145.018C30.4595 145.104 30.3055 145.241 30.1802 145.431C30.0584 145.621 29.9653 145.87 29.9009 146.178C29.8364 146.486 29.8042 146.86 29.8042 147.3V148.82C29.8042 149.171 29.8239 149.481 29.8633 149.75C29.9062 150.018 29.9689 150.251 30.0513 150.448C30.1336 150.641 30.2339 150.8 30.3521 150.926C30.4702 151.051 30.6063 151.144 30.7603 151.205C30.9178 151.262 31.0915 151.291 31.2812 151.291C31.5247 151.291 31.7378 151.244 31.9204 151.151C32.103 151.058 32.2552 150.913 32.377 150.716C32.5023 150.516 32.5954 150.26 32.6562 149.948C32.7171 149.633 32.7476 149.257 32.7476 148.82Z" fill="black" fill-opacity="0.66"/>
<path d="M11.5317 99.2778L10.7368 99.0737L11.1289 95.1797H15.1411V96.0981H11.9722L11.7358 98.2251C11.8791 98.1427 12.0599 98.0658 12.2783 97.9941C12.5003 97.9225 12.7546 97.8867 13.041 97.8867C13.4027 97.8867 13.7267 97.9494 14.0132 98.0747C14.2996 98.1965 14.5431 98.3719 14.7437 98.6011C14.9478 98.8302 15.1035 99.106 15.2109 99.4282C15.3184 99.7505 15.3721 100.11 15.3721 100.508C15.3721 100.884 15.3201 101.229 15.2163 101.544C15.116 101.86 14.9639 102.135 14.7598 102.372C14.5557 102.604 14.2979 102.785 13.9863 102.914C13.6784 103.043 13.3149 103.107 12.896 103.107C12.5809 103.107 12.2819 103.064 11.999 102.979C11.7197 102.889 11.4691 102.755 11.2471 102.576C11.0286 102.393 10.8496 102.167 10.71 101.899C10.5739 101.627 10.488 101.308 10.4521 100.943H11.3975C11.4404 101.236 11.5264 101.484 11.6553 101.684C11.7842 101.885 11.9525 102.037 12.1602 102.141C12.3714 102.241 12.6167 102.291 12.896 102.291C13.1323 102.291 13.3418 102.25 13.5244 102.167C13.707 102.085 13.861 101.967 13.9863 101.813C14.1117 101.659 14.2065 101.473 14.271 101.254C14.339 101.036 14.373 100.791 14.373 100.519C14.373 100.271 14.339 100.042 14.271 99.8311C14.203 99.6198 14.1009 99.4354 13.9648 99.2778C13.8324 99.1203 13.6694 98.9985 13.4761 98.9126C13.2827 98.8231 13.0607 98.7783 12.8101 98.7783C12.4771 98.7783 12.2246 98.8231 12.0527 98.9126C11.8844 99.0021 11.7108 99.1239 11.5317 99.2778ZM21.3716 98.4668V99.6592C21.3716 100.3 21.3143 100.841 21.1997 101.281C21.0851 101.722 20.9204 102.076 20.7056 102.345C20.4907 102.613 20.2311 102.808 19.9268 102.93C19.626 103.048 19.2858 103.107 18.9062 103.107C18.6055 103.107 18.328 103.07 18.0737 102.995C17.8195 102.919 17.5903 102.799 17.3862 102.635C17.1857 102.466 17.0138 102.248 16.8706 101.979C16.7274 101.711 16.6182 101.385 16.543 101.002C16.4678 100.619 16.4302 100.171 16.4302 99.6592V98.4668C16.4302 97.8258 16.4875 97.2887 16.6021 96.8555C16.7202 96.4222 16.8867 96.0749 17.1016 95.8135C17.3164 95.5485 17.5742 95.3587 17.875 95.2441C18.1794 95.1296 18.5195 95.0723 18.8955 95.0723C19.1999 95.0723 19.4792 95.1099 19.7334 95.1851C19.9912 95.2567 20.2204 95.373 20.4209 95.5342C20.6214 95.6917 20.7915 95.903 20.9312 96.168C21.0744 96.4294 21.1836 96.7498 21.2588 97.1294C21.334 97.509 21.3716 97.9548 21.3716 98.4668ZM20.3726 99.8203V98.3003C20.3726 97.9494 20.3511 97.6414 20.3081 97.3765C20.2687 97.1079 20.2096 96.8787 20.1309 96.689C20.0521 96.4992 19.9518 96.3452 19.8301 96.2271C19.7119 96.1089 19.5741 96.0229 19.4165 95.9692C19.2625 95.9119 19.0889 95.8833 18.8955 95.8833C18.6592 95.8833 18.4497 95.9281 18.2671 96.0176C18.0845 96.1035 17.9305 96.2414 17.8052 96.4312C17.6834 96.6209 17.5903 96.8698 17.5259 97.1777C17.4614 97.4857 17.4292 97.8599 17.4292 98.3003V99.8203C17.4292 100.171 17.4489 100.481 17.4883 100.75C17.5312 101.018 17.5939 101.251 17.6763 101.448C17.7586 101.641 17.8589 101.8 17.9771 101.926C18.0952 102.051 18.2313 102.144 18.3853 102.205C18.5428 102.262 18.7165 102.291 18.9062 102.291C19.1497 102.291 19.3628 102.244 19.5454 102.151C19.728 102.058 19.8802 101.913 20.002 101.716C20.1273 101.516 20.2204 101.26 20.2812 100.948C20.3421 100.633 20.3726 100.257 20.3726 99.8203ZM27.5591 98.4668V99.6592C27.5591 100.3 27.5018 100.841 27.3872 101.281C27.2726 101.722 27.1079 102.076 26.8931 102.345C26.6782 102.613 26.4186 102.808 26.1143 102.93C25.8135 103.048 25.4733 103.107 25.0938 103.107C24.793 103.107 24.5155 103.07 24.2612 102.995C24.007 102.919 23.7778 102.799 23.5737 102.635C23.3732 102.466 23.2013 102.248 23.0581 101.979C22.9149 101.711 22.8057 101.385 22.7305 101.002C22.6553 100.619 22.6177 100.171 22.6177 99.6592V98.4668C22.6177 97.8258 22.675 97.2887 22.7896 96.8555C22.9077 96.4222 23.0742 96.0749 23.2891 95.8135C23.5039 95.5485 23.7617 95.3587 24.0625 95.2441C24.3669 95.1296 24.707 95.0723 25.083 95.0723C25.3874 95.0723 25.6667 95.1099 25.9209 95.1851C26.1787 95.2567 26.4079 95.373 26.6084 95.5342C26.8089 95.6917 26.979 95.903 27.1187 96.168C27.2619 96.4294 27.3711 96.7498 27.4463 97.1294C27.5215 97.509 27.5591 97.9548 27.5591 98.4668ZM26.5601 99.8203V98.3003C26.5601 97.9494 26.5386 97.6414 26.4956 97.3765C26.4562 97.1079 26.3971 96.8787 26.3184 96.689C26.2396 96.4992 26.1393 96.3452 26.0176 96.2271C25.8994 96.1089 25.7616 96.0229 25.604 95.9692C25.45 95.9119 25.2764 95.8833 25.083 95.8833C24.8467 95.8833 24.6372 95.9281 24.4546 96.0176C24.272 96.1035 24.118 96.2414 23.9927 96.4312C23.8709 96.6209 23.7778 96.8698 23.7134 97.1777C23.6489 97.4857 23.6167 97.8599 23.6167 98.3003V99.8203C23.6167 100.171 23.6364 100.481 23.6758 100.75C23.7188 101.018 23.7814 101.251 23.8638 101.448C23.9461 101.641 24.0464 101.8 24.1646 101.926C24.2827 102.051 24.4188 102.144 24.5728 102.205C24.7303 102.262 24.904 102.291 25.0938 102.291C25.3372 102.291 25.5503 102.244 25.7329 102.151C25.9155 102.058 26.0677 101.913 26.1895 101.716C26.3148 101.516 26.4079 101.26 26.4688 100.948C26.5296 100.633 26.5601 100.257 26.5601 99.8203ZM33.7466 98.4668V99.6592C33.7466 100.3 33.6893 100.841 33.5747 101.281C33.4601 101.722 33.2954 102.076 33.0806 102.345C32.8657 102.613 32.6061 102.808 32.3018 102.93C32.001 103.048 31.6608 103.107 31.2812 103.107C30.9805 103.107 30.703 103.07 30.4487 102.995C30.1945 102.919 29.9653 102.799 29.7612 102.635C29.5607 102.466 29.3888 102.248 29.2456 101.979C29.1024 101.711 28.9932 101.385 28.918 101.002C28.8428 100.619 28.8052 100.171 28.8052 99.6592V98.4668C28.8052 97.8258 28.8625 97.2887 28.9771 96.8555C29.0952 96.4222 29.2617 96.0749 29.4766 95.8135C29.6914 95.5485 29.9492 95.3587 30.25 95.2441C30.5544 95.1296 30.8945 95.0723 31.2705 95.0723C31.5749 95.0723 31.8542 95.1099 32.1084 95.1851C32.3662 95.2567 32.5954 95.373 32.7959 95.5342C32.9964 95.6917 33.1665 95.903 33.3062 96.168C33.4494 96.4294 33.5586 96.7498 33.6338 97.1294C33.709 97.509 33.7466 97.9548 33.7466 98.4668ZM32.7476 99.8203V98.3003C32.7476 97.9494 32.7261 97.6414 32.6831 97.3765C32.6437 97.1079 32.5846 96.8787 32.5059 96.689C32.4271 96.4992 32.3268 96.3452 32.2051 96.2271C32.0869 96.1089 31.9491 96.0229 31.7915 95.9692C31.6375 95.9119 31.4639 95.8833 31.2705 95.8833C31.0342 95.8833 30.8247 95.9281 30.6421 96.0176C30.4595 96.1035 30.3055 96.2414 30.1802 96.4312C30.0584 96.6209 29.9653 96.8698 29.9009 97.1777C29.8364 97.4857 29.8042 97.8599 29.8042 98.3003V99.8203C29.8042 100.171 29.8239 100.481 29.8633 100.75C29.9062 101.018 29.9689 101.251 30.0513 101.448C30.1336 101.641 30.2339 101.8 30.3521 101.926C30.4702 102.051 30.6063 102.144 30.7603 102.205C30.9178 102.262 31.0915 102.291 31.2812 102.291C31.5247 102.291 31.7378 102.244 31.9204 102.151C32.103 102.058 32.2552 101.913 32.377 101.716C32.5023 101.516 32.5954 101.26 32.6562 100.948C32.7171 100.633 32.7476 100.257 32.7476 99.8203Z" fill="black" fill-opacity="0.66"/>
<path d="M11.5317 53.2778L10.7368 53.0737L11.1289 49.1797H15.1411V50.0981H11.9722L11.7358 52.2251C11.8791 52.1427 12.0599 52.0658 12.2783 51.9941C12.5003 51.9225 12.7546 51.8867 13.041 51.8867C13.4027 51.8867 13.7267 51.9494 14.0132 52.0747C14.2996 52.1965 14.5431 52.3719 14.7437 52.6011C14.9478 52.8302 15.1035 53.106 15.2109 53.4282C15.3184 53.7505 15.3721 54.1104 15.3721 54.5078C15.3721 54.8838 15.3201 55.2293 15.2163 55.5444C15.116 55.8595 14.9639 56.1353 14.7598 56.3716C14.5557 56.6043 14.2979 56.7852 13.9863 56.9141C13.6784 57.043 13.3149 57.1074 12.896 57.1074C12.5809 57.1074 12.2819 57.0645 11.999 56.9785C11.7197 56.889 11.4691 56.7547 11.2471 56.5757C11.0286 56.3931 10.8496 56.1675 10.71 55.8989C10.5739 55.6268 10.488 55.3081 10.4521 54.9429H11.3975C11.4404 55.2365 11.5264 55.4836 11.6553 55.6841C11.7842 55.8846 11.9525 56.0368 12.1602 56.1406C12.3714 56.2409 12.6167 56.291 12.896 56.291C13.1323 56.291 13.3418 56.2498 13.5244 56.1675C13.707 56.0851 13.861 55.967 13.9863 55.813C14.1117 55.659 14.2065 55.4728 14.271 55.2544C14.339 55.036 14.373 54.7907 14.373 54.5186C14.373 54.2715 14.339 54.0423 14.271 53.8311C14.203 53.6198 14.1009 53.4354 13.9648 53.2778C13.8324 53.1203 13.6694 52.9985 13.4761 52.9126C13.2827 52.8231 13.0607 52.7783 12.8101 52.7783C12.4771 52.7783 12.2246 52.8231 12.0527 52.9126C11.8844 53.0021 11.7108 53.1239 11.5317 53.2778ZM17.7192 53.2778L16.9243 53.0737L17.3164 49.1797H21.3286V50.0981H18.1597L17.9233 52.2251C18.0666 52.1427 18.2474 52.0658 18.4658 51.9941C18.6878 51.9225 18.9421 51.8867 19.2285 51.8867C19.5902 51.8867 19.9142 51.9494 20.2007 52.0747C20.4871 52.1965 20.7306 52.3719 20.9312 52.6011C21.1353 52.8302 21.291 53.106 21.3984 53.4282C21.5059 53.7505 21.5596 54.1104 21.5596 54.5078C21.5596 54.8838 21.5076 55.2293 21.4038 55.5444C21.3035 55.8595 21.1514 56.1353 20.9473 56.3716C20.7432 56.6043 20.4854 56.7852 20.1738 56.9141C19.8659 57.043 19.5024 57.1074 19.0835 57.1074C18.7684 57.1074 18.4694 57.0645 18.1865 56.9785C17.9072 56.889 17.6566 56.7547 17.4346 56.5757C17.2161 56.3931 17.0371 56.1675 16.8975 55.8989C16.7614 55.6268 16.6755 55.3081 16.6396 54.9429H17.585C17.6279 55.2365 17.7139 55.4836 17.8428 55.6841C17.9717 55.8846 18.14 56.0368 18.3477 56.1406C18.5589 56.2409 18.8042 56.291 19.0835 56.291C19.3198 56.291 19.5293 56.2498 19.7119 56.1675C19.8945 56.0851 20.0485 55.967 20.1738 55.813C20.2992 55.659 20.394 55.4728 20.4585 55.2544C20.5265 55.036 20.5605 54.7907 20.5605 54.5186C20.5605 54.2715 20.5265 54.0423 20.4585 53.8311C20.3905 53.6198 20.2884 53.4354 20.1523 53.2778C20.0199 53.1203 19.8569 52.9985 19.6636 52.9126C19.4702 52.8231 19.2482 52.7783 18.9976 52.7783C18.6646 52.7783 18.4121 52.8231 18.2402 52.9126C18.0719 53.0021 17.8983 53.1239 17.7192 53.2778ZM27.5591 52.4668V53.6592C27.5591 54.3001 27.5018 54.8408 27.3872 55.2812C27.2726 55.7217 27.1079 56.0762 26.8931 56.3447C26.6782 56.6133 26.4186 56.8084 26.1143 56.9302C25.8135 57.0483 25.4733 57.1074 25.0938 57.1074C24.793 57.1074 24.5155 57.0698 24.2612 56.9946C24.007 56.9194 23.7778 56.7995 23.5737 56.6348C23.3732 56.4665 23.2013 56.248 23.0581 55.9795C22.9149 55.7109 22.8057 55.3851 22.7305 55.002C22.6553 54.6188 22.6177 54.1712 22.6177 53.6592V52.4668C22.6177 51.8258 22.675 51.2887 22.7896 50.8555C22.9077 50.4222 23.0742 50.0749 23.2891 49.8135C23.5039 49.5485 23.7617 49.3587 24.0625 49.2441C24.3669 49.1296 24.707 49.0723 25.083 49.0723C25.3874 49.0723 25.6667 49.1099 25.9209 49.1851C26.1787 49.2567 26.4079 49.373 26.6084 49.5342C26.8089 49.6917 26.979 49.903 27.1187 50.168C27.2619 50.4294 27.3711 50.7498 27.4463 51.1294C27.5215 51.509 27.5591 51.9548 27.5591 52.4668ZM26.5601 53.8203V52.3003C26.5601 51.9494 26.5386 51.6414 26.4956 51.3765C26.4562 51.1079 26.3971 50.8787 26.3184 50.689C26.2396 50.4992 26.1393 50.3452 26.0176 50.2271C25.8994 50.1089 25.7616 50.0229 25.604 49.9692C25.45 49.9119 25.2764 49.8833 25.083 49.8833C24.8467 49.8833 24.6372 49.9281 24.4546 50.0176C24.272 50.1035 24.118 50.2414 23.9927 50.4312C23.8709 50.6209 23.7778 50.8698 23.7134 51.1777C23.6489 51.4857 23.6167 51.8599 23.6167 52.3003V53.8203C23.6167 54.1712 23.6364 54.481 23.6758 54.7495C23.7188 55.0181 23.7814 55.2508 23.8638 55.4478C23.9461 55.6411 24.0464 55.8005 24.1646 55.9258C24.2827 56.0511 24.4188 56.1442 24.5728 56.2051C24.7303 56.2624 24.904 56.291 25.0938 56.291C25.3372 56.291 25.5503 56.2445 25.7329 56.1514C25.9155 56.0583 26.0677 55.9132 26.1895 55.7163C26.3148 55.5158 26.4079 55.2598 26.4688 54.9482C26.5296 54.6331 26.5601 54.2572 26.5601 53.8203ZM33.7466 52.4668V53.6592C33.7466 54.3001 33.6893 54.8408 33.5747 55.2812C33.4601 55.7217 33.2954 56.0762 33.0806 56.3447C32.8657 56.6133 32.6061 56.8084 32.3018 56.9302C32.001 57.0483 31.6608 57.1074 31.2812 57.1074C30.9805 57.1074 30.703 57.0698 30.4487 56.9946C30.1945 56.9194 29.9653 56.7995 29.7612 56.6348C29.5607 56.4665 29.3888 56.248 29.2456 55.9795C29.1024 55.7109 28.9932 55.3851 28.918 55.002C28.8428 54.6188 28.8052 54.1712 28.8052 53.6592V52.4668C28.8052 51.8258 28.8625 51.2887 28.9771 50.8555C29.0952 50.4222 29.2617 50.0749 29.4766 49.8135C29.6914 49.5485 29.9492 49.3587 30.25 49.2441C30.5544 49.1296 30.8945 49.0723 31.2705 49.0723C31.5749 49.0723 31.8542 49.1099 32.1084 49.1851C32.3662 49.2567 32.5954 49.373 32.7959 49.5342C32.9964 49.6917 33.1665 49.903 33.3062 50.168C33.4494 50.4294 33.5586 50.7498 33.6338 51.1294C33.709 51.509 33.7466 51.9548 33.7466 52.4668ZM32.7476 53.8203V52.3003C32.7476 51.9494 32.7261 51.6414 32.6831 51.3765C32.6437 51.1079 32.5846 50.8787 32.5059 50.689C32.4271 50.4992 32.3268 50.3452 32.2051 50.2271C32.0869 50.1089 31.9491 50.0229 31.7915 49.9692C31.6375 49.9119 31.4639 49.8833 31.2705 49.8833C31.0342 49.8833 30.8247 49.9281 30.6421 50.0176C30.4595 50.1035 30.3055 50.2414 30.1802 50.4312C30.0584 50.6209 29.9653 50.8698 29.9009 51.1777C29.8364 51.4857 29.8042 51.8599 29.8042 52.3003V53.8203C29.8042 54.1712 29.8239 54.481 29.8633 54.7495C29.9062 55.0181 29.9689 55.2508 30.0513 55.4478C30.1336 55.6411 30.2339 55.8005 30.3521 55.9258C30.4702 56.0511 30.6063 56.1442 30.7603 56.2051C30.9178 56.2624 31.0915 56.291 31.2812 56.291C31.5247 56.291 31.7378 56.2445 31.9204 56.1514C32.103 56.0583 32.2552 55.9132 32.377 55.7163C32.5023 55.5158 32.5954 55.2598 32.6562 54.9482C32.7171 54.6331 32.7476 54.2572 32.7476 53.8203Z" fill="black" fill-opacity="0.66"/>
<path d="M14.0884 2.16895H14.1743V3.01221H14.0884C13.562 3.01221 13.1216 3.09814 12.7671 3.27002C12.4126 3.43831 12.1315 3.66569 11.9238 3.95215C11.7161 4.23503 11.5658 4.55371 11.4727 4.9082C11.3831 5.2627 11.3384 5.62256 11.3384 5.98779V7.13721C11.3384 7.48454 11.3796 7.79248 11.4619 8.06104C11.5443 8.32601 11.6571 8.5498 11.8003 8.73242C11.9435 8.91504 12.1047 9.0529 12.2837 9.146C12.4663 9.2391 12.6561 9.28564 12.853 9.28564C13.0822 9.28564 13.2863 9.24268 13.4653 9.15674C13.6444 9.06722 13.7948 8.94368 13.9165 8.78613C14.0418 8.625 14.1367 8.43522 14.2012 8.2168C14.2656 7.99837 14.2979 7.75846 14.2979 7.49707C14.2979 7.26432 14.2692 7.04053 14.2119 6.82568C14.1546 6.60726 14.0669 6.4139 13.9487 6.24561C13.8306 6.07373 13.682 5.93945 13.5029 5.84277C13.3275 5.74251 13.118 5.69238 12.8745 5.69238C12.5988 5.69238 12.341 5.76042 12.1011 5.89648C11.8647 6.02897 11.6696 6.20443 11.5156 6.42285C11.3652 6.6377 11.2793 6.87223 11.2578 7.12646L10.7314 7.12109C10.7816 6.72005 10.8747 6.37809 11.0107 6.09521C11.1504 5.80876 11.3223 5.57601 11.5264 5.39697C11.734 5.21436 11.965 5.08187 12.2192 4.99951C12.4771 4.91357 12.7492 4.87061 13.0356 4.87061C13.4259 4.87061 13.7625 4.94401 14.0454 5.09082C14.3283 5.23763 14.561 5.43457 14.7437 5.68164C14.9263 5.92513 15.0605 6.20085 15.1465 6.50879C15.236 6.81315 15.2808 7.12646 15.2808 7.44873C15.2808 7.81755 15.2288 8.16309 15.125 8.48535C15.0212 8.80762 14.8654 9.09049 14.6577 9.33398C14.4536 9.57747 14.2012 9.76725 13.9004 9.90332C13.5996 10.0394 13.2505 10.1074 12.853 10.1074C12.4305 10.1074 12.0617 10.0215 11.7466 9.84961C11.4315 9.67415 11.1701 9.44141 10.9624 9.15137C10.7547 8.86133 10.599 8.53906 10.4951 8.18457C10.3913 7.83008 10.3394 7.47021 10.3394 7.10498V6.6377C10.3394 6.08626 10.3949 5.54557 10.5059 5.01562C10.6169 4.48568 10.8084 4.00586 11.0806 3.57617C11.3563 3.14648 11.7376 2.80452 12.2246 2.55029C12.7116 2.29606 13.3328 2.16895 14.0884 2.16895ZM21.3716 5.4668V6.65918C21.3716 7.30013 21.3143 7.84082 21.1997 8.28125C21.0851 8.72168 20.9204 9.07617 20.7056 9.34473C20.4907 9.61328 20.2311 9.80843 19.9268 9.93018C19.626 10.0483 19.2858 10.1074 18.9062 10.1074C18.6055 10.1074 18.328 10.0698 18.0737 9.99463C17.8195 9.91943 17.5903 9.79948 17.3862 9.63477C17.1857 9.46647 17.0138 9.24805 16.8706 8.97949C16.7274 8.71094 16.6182 8.38509 16.543 8.00195C16.4678 7.61882 16.4302 7.17122 16.4302 6.65918V5.4668C16.4302 4.82585 16.4875 4.28874 16.6021 3.85547C16.7202 3.4222 16.8867 3.07487 17.1016 2.81348C17.3164 2.5485 17.5742 2.35872 17.875 2.24414C18.1794 2.12956 18.5195 2.07227 18.8955 2.07227C19.1999 2.07227 19.4792 2.10986 19.7334 2.18506C19.9912 2.25667 20.2204 2.37305 20.4209 2.53418C20.6214 2.69173 20.7915 2.90299 20.9312 3.16797C21.0744 3.42936 21.1836 3.74984 21.2588 4.12939C21.334 4.50895 21.3716 4.95475 21.3716 5.4668ZM20.3726 6.82031V5.30029C20.3726 4.94938 20.3511 4.64144 20.3081 4.37646C20.2687 4.10791 20.2096 3.87874 20.1309 3.68896C20.0521 3.49919 19.9518 3.34521 19.8301 3.22705C19.7119 3.10889 19.5741 3.02295 19.4165 2.96924C19.2625 2.91195 19.0889 2.8833 18.8955 2.8833C18.6592 2.8833 18.4497 2.92806 18.2671 3.01758C18.0845 3.10352 17.9305 3.24137 17.8052 3.43115C17.6834 3.62093 17.5903 3.86979 17.5259 4.17773C17.4614 4.48568 17.4292 4.85986 17.4292 5.30029V6.82031C17.4292 7.17122 17.4489 7.48096 17.4883 7.74951C17.5312 8.01807 17.5939 8.25081 17.6763 8.44775C17.7586 8.64111 17.8589 8.80046 17.9771 8.92578C18.0952 9.05111 18.2313 9.14421 18.3853 9.20508C18.5428 9.26237 18.7165 9.29102 18.9062 9.29102C19.1497 9.29102 19.3628 9.24447 19.5454 9.15137C19.728 9.05827 19.8802 8.91325 20.002 8.71631C20.1273 8.51579 20.2204 8.25977 20.2812 7.94824C20.3421 7.63314 20.3726 7.25716 20.3726 6.82031ZM27.5591 5.4668V6.65918C27.5591 7.30013 27.5018 7.84082 27.3872 8.28125C27.2726 8.72168 27.1079 9.07617 26.8931 9.34473C26.6782 9.61328 26.4186 9.80843 26.1143 9.93018C25.8135 10.0483 25.4733 10.1074 25.0938 10.1074C24.793 10.1074 24.5155 10.0698 24.2612 9.99463C24.007 9.91943 23.7778 9.79948 23.5737 9.63477C23.3732 9.46647 23.2013 9.24805 23.0581 8.97949C22.9149 8.71094 22.8057 8.38509 22.7305 8.00195C22.6553 7.61882 22.6177 7.17122 22.6177 6.65918V5.4668C22.6177 4.82585 22.675 4.28874 22.7896 3.85547C22.9077 3.4222 23.0742 3.07487 23.2891 2.81348C23.5039 2.5485 23.7617 2.35872 24.0625 2.24414C24.3669 2.12956 24.707 2.07227 25.083 2.07227C25.3874 2.07227 25.6667 2.10986 25.9209 2.18506C26.1787 2.25667 26.4079 2.37305 26.6084 2.53418C26.8089 2.69173 26.979 2.90299 27.1187 3.16797C27.2619 3.42936 27.3711 3.74984 27.4463 4.12939C27.5215 4.50895 27.5591 4.95475 27.5591 5.4668ZM26.5601 6.82031V5.30029C26.5601 4.94938 26.5386 4.64144 26.4956 4.37646C26.4562 4.10791 26.3971 3.87874 26.3184 3.68896C26.2396 3.49919 26.1393 3.34521 26.0176 3.22705C25.8994 3.10889 25.7616 3.02295 25.604 2.96924C25.45 2.91195 25.2764 2.8833 25.083 2.8833C24.8467 2.8833 24.6372 2.92806 24.4546 3.01758C24.272 3.10352 24.118 3.24137 23.9927 3.43115C23.8709 3.62093 23.7778 3.86979 23.7134 4.17773C23.6489 4.48568 23.6167 4.85986 23.6167 5.30029V6.82031C23.6167 7.17122 23.6364 7.48096 23.6758 7.74951C23.7188 8.01807 23.7814 8.25081 23.8638 8.44775C23.9461 8.64111 24.0464 8.80046 24.1646 8.92578C24.2827 9.05111 24.4188 9.14421 24.5728 9.20508C24.7303 9.26237 24.904 9.29102 25.0938 9.29102C25.3372 9.29102 25.5503 9.24447 25.7329 9.15137C25.9155 9.05827 26.0677 8.91325 26.1895 8.71631C26.3148 8.51579 26.4079 8.25977 26.4688 7.94824C26.5296 7.63314 26.5601 7.25716 26.5601 6.82031ZM33.7466 5.4668V6.65918C33.7466 7.30013 33.6893 7.84082 33.5747 8.28125C33.4601 8.72168 33.2954 9.07617 33.0806 9.34473C32.8657 9.61328 32.6061 9.80843 32.3018 9.93018C32.001 10.0483 31.6608 10.1074 31.2812 10.1074C30.9805 10.1074 30.703 10.0698 30.4487 9.99463C30.1945 9.91943 29.9653 9.79948 29.7612 9.63477C29.5607 9.46647 29.3888 9.24805 29.2456 8.97949C29.1024 8.71094 28.9932 8.38509 28.918 8.00195C28.8428 7.61882 28.8052 7.17122 28.8052 6.65918V5.4668C28.8052 4.82585 28.8625 4.28874 28.9771 3.85547C29.0952 3.4222 29.2617 3.07487 29.4766 2.81348C29.6914 2.5485 29.9492 2.35872 30.25 2.24414C30.5544 2.12956 30.8945 2.07227 31.2705 2.07227C31.5749 2.07227 31.8542 2.10986 32.1084 2.18506C32.3662 2.25667 32.5954 2.37305 32.7959 2.53418C32.9964 2.69173 33.1665 2.90299 33.3062 3.16797C33.4494 3.42936 33.5586 3.74984 33.6338 4.12939C33.709 4.50895 33.7466 4.95475 33.7466 5.4668ZM32.7476 6.82031V5.30029C32.7476 4.94938 32.7261 4.64144 32.6831 4.37646C32.6437 4.10791 32.5846 3.87874 32.5059 3.68896C32.4271 3.49919 32.3268 3.34521 32.2051 3.22705C32.0869 3.10889 31.9491 3.02295 31.7915 2.96924C31.6375 2.91195 31.4639 2.8833 31.2705 2.8833C31.0342 2.8833 30.8247 2.92806 30.6421 3.01758C30.4595 3.10352 30.3055 3.24137 30.1802 3.43115C30.0584 3.62093 29.9653 3.86979 29.9009 4.17773C29.8364 4.48568 29.8042 4.85986 29.8042 5.30029V6.82031C29.8042 7.17122 29.8239 7.48096 29.8633 7.74951C29.9062 8.01807 29.9689 8.25081 30.0513 8.44775C30.1336 8.64111 30.2339 8.80046 30.3521 8.92578C30.4702 9.05111 30.6063 9.14421 30.7603 9.20508C30.9178 9.26237 31.0915 9.29102 31.2812 9.29102C31.5247 9.29102 31.7378 9.24447 31.9204 9.15137C32.103 9.05827 32.2552 8.91325 32.377 8.71631C32.5023 8.51579 32.5954 8.25977 32.6562 7.94824C32.7171 7.63314 32.7476 7.25716 32.7476 6.82031Z" fill="black" fill-opacity="0.66"/>
<path d="M1142.81 246.278L1142.02 246.074L1142.41 242.18H1146.42V243.098H1143.25L1143.02 245.225C1143.16 245.143 1143.34 245.066 1143.56 244.994C1143.78 244.923 1144.04 244.887 1144.32 244.887C1144.68 244.887 1145.01 244.949 1145.29 245.075C1145.58 245.196 1145.82 245.372 1146.02 245.601C1146.23 245.83 1146.38 246.106 1146.49 246.428C1146.6 246.75 1146.65 247.11 1146.65 247.508C1146.65 247.884 1146.6 248.229 1146.5 248.544C1146.4 248.86 1146.25 249.135 1146.04 249.372C1145.84 249.604 1145.58 249.785 1145.27 249.914C1144.96 250.043 1144.6 250.107 1144.18 250.107C1143.86 250.107 1143.56 250.064 1143.28 249.979C1143 249.889 1142.75 249.755 1142.53 249.576C1142.31 249.393 1142.13 249.167 1141.99 248.899C1141.86 248.627 1141.77 248.308 1141.73 247.943H1142.68C1142.72 248.236 1142.81 248.484 1142.94 248.684C1143.07 248.885 1143.23 249.037 1143.44 249.141C1143.65 249.241 1143.9 249.291 1144.18 249.291C1144.41 249.291 1144.62 249.25 1144.81 249.167C1144.99 249.085 1145.14 248.967 1145.27 248.813C1145.39 248.659 1145.49 248.473 1145.55 248.254C1145.62 248.036 1145.65 247.791 1145.65 247.519C1145.65 247.271 1145.62 247.042 1145.55 246.831C1145.48 246.62 1145.38 246.435 1145.25 246.278C1145.11 246.12 1144.95 245.999 1144.76 245.913C1144.56 245.823 1144.34 245.778 1144.09 245.778C1143.76 245.778 1143.51 245.823 1143.33 245.913C1143.17 246.002 1142.99 246.124 1142.81 246.278Z" fill="black" fill-opacity="0.66"/>
<path d="M1146.47 291.467V292.659C1146.47 293.3 1146.41 293.841 1146.29 294.281C1146.18 294.722 1146.01 295.076 1145.8 295.345C1145.58 295.613 1145.32 295.808 1145.02 295.93C1144.72 296.048 1144.38 296.107 1144 296.107C1143.7 296.107 1143.42 296.07 1143.17 295.995C1142.91 295.919 1142.68 295.799 1142.48 295.635C1142.28 295.466 1142.11 295.248 1141.96 294.979C1141.82 294.711 1141.71 294.385 1141.64 294.002C1141.56 293.619 1141.52 293.171 1141.52 292.659V291.467C1141.52 290.826 1141.58 290.289 1141.7 289.855C1141.81 289.422 1141.98 289.075 1142.2 288.813C1142.41 288.549 1142.67 288.359 1142.97 288.244C1143.27 288.13 1143.61 288.072 1143.99 288.072C1144.29 288.072 1144.57 288.11 1144.83 288.185C1145.08 288.257 1145.31 288.373 1145.51 288.534C1145.72 288.692 1145.89 288.903 1146.02 289.168C1146.17 289.429 1146.28 289.75 1146.35 290.129C1146.43 290.509 1146.47 290.955 1146.47 291.467ZM1145.47 292.82V291.3C1145.47 290.949 1145.44 290.641 1145.4 290.376C1145.36 290.108 1145.3 289.879 1145.22 289.689C1145.15 289.499 1145.05 289.345 1144.92 289.227C1144.81 289.109 1144.67 289.023 1144.51 288.969C1144.36 288.912 1144.18 288.883 1143.99 288.883C1143.75 288.883 1143.54 288.928 1143.36 289.018C1143.18 289.104 1143.02 289.241 1142.9 289.431C1142.78 289.621 1142.68 289.87 1142.62 290.178C1142.56 290.486 1142.52 290.86 1142.52 291.3V292.82C1142.52 293.171 1142.54 293.481 1142.58 293.75C1142.62 294.018 1142.69 294.251 1142.77 294.448C1142.85 294.641 1142.95 294.8 1143.07 294.926C1143.19 295.051 1143.33 295.144 1143.48 295.205C1143.64 295.262 1143.81 295.291 1144 295.291C1144.24 295.291 1144.46 295.244 1144.64 295.151C1144.82 295.058 1144.97 294.913 1145.1 294.716C1145.22 294.516 1145.31 294.26 1145.38 293.948C1145.44 293.633 1145.47 293.257 1145.47 292.82Z" fill="black" fill-opacity="0.66"/>
<path d="M1141.73 192.137V200H1140.73V193.377L1138.73 194.108V193.211L1141.57 192.137H1141.73ZM1149.56 195.467V196.659C1149.56 197.3 1149.5 197.841 1149.39 198.281C1149.27 198.722 1149.11 199.076 1148.89 199.345C1148.68 199.613 1148.42 199.808 1148.11 199.93C1147.81 200.048 1147.47 200.107 1147.09 200.107C1146.79 200.107 1146.52 200.07 1146.26 199.995C1146.01 199.919 1145.78 199.799 1145.57 199.635C1145.37 199.466 1145.2 199.248 1145.06 198.979C1144.91 198.711 1144.81 198.385 1144.73 198.002C1144.66 197.619 1144.62 197.171 1144.62 196.659V195.467C1144.62 194.826 1144.67 194.289 1144.79 193.855C1144.91 193.422 1145.07 193.075 1145.29 192.813C1145.5 192.549 1145.76 192.359 1146.06 192.244C1146.37 192.13 1146.71 192.072 1147.08 192.072C1147.39 192.072 1147.67 192.11 1147.92 192.185C1148.18 192.257 1148.41 192.373 1148.61 192.534C1148.81 192.692 1148.98 192.903 1149.12 193.168C1149.26 193.429 1149.37 193.75 1149.45 194.129C1149.52 194.509 1149.56 194.955 1149.56 195.467ZM1148.56 196.82V195.3C1148.56 194.949 1148.54 194.641 1148.5 194.376C1148.46 194.108 1148.4 193.879 1148.32 193.689C1148.24 193.499 1148.14 193.345 1148.02 193.227C1147.9 193.109 1147.76 193.023 1147.6 192.969C1147.45 192.912 1147.28 192.883 1147.08 192.883C1146.85 192.883 1146.64 192.928 1146.45 193.018C1146.27 193.104 1146.12 193.241 1145.99 193.431C1145.87 193.621 1145.78 193.87 1145.71 194.178C1145.65 194.486 1145.62 194.86 1145.62 195.3V196.82C1145.62 197.171 1145.64 197.481 1145.68 197.75C1145.72 198.018 1145.78 198.251 1145.86 198.448C1145.95 198.641 1146.05 198.8 1146.16 198.926C1146.28 199.051 1146.42 199.144 1146.57 199.205C1146.73 199.262 1146.9 199.291 1147.09 199.291C1147.34 199.291 1147.55 199.244 1147.73 199.151C1147.92 199.058 1148.07 198.913 1148.19 198.716C1148.31 198.516 1148.41 198.26 1148.47 197.948C1148.53 197.633 1148.56 197.257 1148.56 196.82Z" fill="black" fill-opacity="0.66"/>
<path d="M1141.73 144.137V152H1140.73V145.377L1138.73 146.108V145.211L1141.57 144.137H1141.73ZM1145.91 148.278L1145.11 148.074L1145.5 144.18H1149.52V145.098H1146.35L1146.11 147.225C1146.25 147.143 1146.43 147.066 1146.65 146.994C1146.88 146.923 1147.13 146.887 1147.42 146.887C1147.78 146.887 1148.1 146.949 1148.39 147.075C1148.67 147.196 1148.92 147.372 1149.12 147.601C1149.32 147.83 1149.48 148.106 1149.59 148.428C1149.69 148.75 1149.75 149.11 1149.75 149.508C1149.75 149.884 1149.7 150.229 1149.59 150.544C1149.49 150.86 1149.34 151.135 1149.13 151.372C1148.93 151.604 1148.67 151.785 1148.36 151.914C1148.05 152.043 1147.69 152.107 1147.27 152.107C1146.96 152.107 1146.66 152.064 1146.37 151.979C1146.09 151.889 1145.84 151.755 1145.62 151.576C1145.4 151.393 1145.22 151.167 1145.08 150.899C1144.95 150.627 1144.86 150.308 1144.83 149.943H1145.77C1145.82 150.236 1145.9 150.484 1146.03 150.684C1146.16 150.885 1146.33 151.037 1146.54 151.141C1146.75 151.241 1146.99 151.291 1147.27 151.291C1147.51 151.291 1147.72 151.25 1147.9 151.167C1148.08 151.085 1148.24 150.967 1148.36 150.813C1148.49 150.659 1148.58 150.473 1148.65 150.254C1148.71 150.036 1148.75 149.791 1148.75 149.519C1148.75 149.271 1148.71 149.042 1148.65 148.831C1148.58 148.62 1148.48 148.435 1148.34 148.278C1148.21 148.12 1148.04 147.999 1147.85 147.913C1147.66 147.823 1147.44 147.778 1147.19 147.778C1146.85 147.778 1146.6 147.823 1146.43 147.913C1146.26 148.002 1146.09 148.124 1145.91 148.278Z" fill="black" fill-opacity="0.66"/>
<path d="M1143.59 102.184V103H1138.47V102.286L1141.03 99.4336C1141.34 99.0827 1141.59 98.7855 1141.76 98.542C1141.94 98.2949 1142.06 98.0747 1142.13 97.8813C1142.2 97.6844 1142.23 97.4839 1142.23 97.2798C1142.23 97.022 1142.18 96.7892 1142.07 96.5815C1141.97 96.3703 1141.81 96.202 1141.61 96.0767C1141.41 95.9513 1141.16 95.8887 1140.87 95.8887C1140.52 95.8887 1140.23 95.9567 1140 96.0928C1139.77 96.2253 1139.6 96.4115 1139.48 96.6514C1139.37 96.8913 1139.31 97.167 1139.31 97.4785H1138.32C1138.32 97.0381 1138.41 96.6353 1138.61 96.27C1138.8 95.9048 1139.09 95.6147 1139.47 95.3999C1139.85 95.1815 1140.31 95.0723 1140.87 95.0723C1141.36 95.0723 1141.79 95.16 1142.14 95.3354C1142.49 95.5073 1142.76 95.7508 1142.94 96.0659C1143.13 96.3774 1143.23 96.7427 1143.23 97.1616C1143.23 97.3908 1143.19 97.6235 1143.11 97.8599C1143.03 98.0926 1142.93 98.3254 1142.79 98.5581C1142.66 98.7909 1142.5 99.02 1142.32 99.2456C1142.15 99.4712 1141.96 99.6932 1141.76 99.9116L1139.67 102.184H1143.59ZM1149.56 98.4668V99.6592C1149.56 100.3 1149.5 100.841 1149.39 101.281C1149.27 101.722 1149.11 102.076 1148.89 102.345C1148.68 102.613 1148.42 102.808 1148.11 102.93C1147.81 103.048 1147.47 103.107 1147.09 103.107C1146.79 103.107 1146.52 103.07 1146.26 102.995C1146.01 102.919 1145.78 102.799 1145.57 102.635C1145.37 102.466 1145.2 102.248 1145.06 101.979C1144.91 101.711 1144.81 101.385 1144.73 101.002C1144.66 100.619 1144.62 100.171 1144.62 99.6592V98.4668C1144.62 97.8258 1144.67 97.2887 1144.79 96.8555C1144.91 96.4222 1145.07 96.0749 1145.29 95.8135C1145.5 95.5485 1145.76 95.3587 1146.06 95.2441C1146.37 95.1296 1146.71 95.0723 1147.08 95.0723C1147.39 95.0723 1147.67 95.1099 1147.92 95.1851C1148.18 95.2567 1148.41 95.373 1148.61 95.5342C1148.81 95.6917 1148.98 95.903 1149.12 96.168C1149.26 96.4294 1149.37 96.7498 1149.45 97.1294C1149.52 97.509 1149.56 97.9548 1149.56 98.4668ZM1148.56 99.8203V98.3003C1148.56 97.9494 1148.54 97.6414 1148.5 97.3765C1148.46 97.1079 1148.4 96.8787 1148.32 96.689C1148.24 96.4992 1148.14 96.3452 1148.02 96.2271C1147.9 96.1089 1147.76 96.0229 1147.6 95.9692C1147.45 95.9119 1147.28 95.8833 1147.08 95.8833C1146.85 95.8833 1146.64 95.9281 1146.45 96.0176C1146.27 96.1035 1146.12 96.2414 1145.99 96.4312C1145.87 96.6209 1145.78 96.8698 1145.71 97.1777C1145.65 97.4857 1145.62 97.8599 1145.62 98.3003V99.8203C1145.62 100.171 1145.64 100.481 1145.68 100.75C1145.72 101.018 1145.78 101.251 1145.86 101.448C1145.95 101.641 1146.05 101.8 1146.16 101.926C1146.28 102.051 1146.42 102.144 1146.57 102.205C1146.73 102.262 1146.9 102.291 1147.09 102.291C1147.34 102.291 1147.55 102.244 1147.73 102.151C1147.92 102.058 1148.07 101.913 1148.19 101.716C1148.31 101.516 1148.41 101.26 1148.47 100.948C1148.53 100.633 1148.56 100.257 1148.56 99.8203Z" fill="black" fill-opacity="0.66"/>
<path d="M1143.59 56.1836V57H1138.47V56.2856L1141.03 53.4336C1141.34 53.0827 1141.59 52.7855 1141.76 52.542C1141.94 52.2949 1142.06 52.0747 1142.13 51.8813C1142.2 51.6844 1142.23 51.4839 1142.23 51.2798C1142.23 51.022 1142.18 50.7892 1142.07 50.5815C1141.97 50.3703 1141.81 50.202 1141.61 50.0767C1141.41 49.9513 1141.16 49.8887 1140.87 49.8887C1140.52 49.8887 1140.23 49.9567 1140 50.0928C1139.77 50.2253 1139.6 50.4115 1139.48 50.6514C1139.37 50.8913 1139.31 51.167 1139.31 51.4785H1138.32C1138.32 51.0381 1138.41 50.6353 1138.61 50.27C1138.8 49.9048 1139.09 49.6147 1139.47 49.3999C1139.85 49.1815 1140.31 49.0723 1140.87 49.0723C1141.36 49.0723 1141.79 49.16 1142.14 49.3354C1142.49 49.5073 1142.76 49.7508 1142.94 50.0659C1143.13 50.3774 1143.23 50.7427 1143.23 51.1616C1143.23 51.3908 1143.19 51.6235 1143.11 51.8599C1143.03 52.0926 1142.93 52.3254 1142.79 52.5581C1142.66 52.7909 1142.5 53.02 1142.32 53.2456C1142.15 53.4712 1141.96 53.6932 1141.76 53.9116L1139.67 56.1836H1143.59ZM1145.91 53.2778L1145.11 53.0737L1145.5 49.1797H1149.52V50.0981H1146.35L1146.11 52.2251C1146.25 52.1427 1146.43 52.0658 1146.65 51.9941C1146.88 51.9225 1147.13 51.8867 1147.42 51.8867C1147.78 51.8867 1148.1 51.9494 1148.39 52.0747C1148.67 52.1965 1148.92 52.3719 1149.12 52.6011C1149.32 52.8302 1149.48 53.106 1149.59 53.4282C1149.69 53.7505 1149.75 54.1104 1149.75 54.5078C1149.75 54.8838 1149.7 55.2293 1149.59 55.5444C1149.49 55.8595 1149.34 56.1353 1149.13 56.3716C1148.93 56.6043 1148.67 56.7852 1148.36 56.9141C1148.05 57.043 1147.69 57.1074 1147.27 57.1074C1146.96 57.1074 1146.66 57.0645 1146.37 56.9785C1146.09 56.889 1145.84 56.7547 1145.62 56.5757C1145.4 56.3931 1145.22 56.1675 1145.08 55.8989C1144.95 55.6268 1144.86 55.3081 1144.83 54.9429H1145.77C1145.82 55.2365 1145.9 55.4836 1146.03 55.6841C1146.16 55.8846 1146.33 56.0368 1146.54 56.1406C1146.75 56.2409 1146.99 56.291 1147.27 56.291C1147.51 56.291 1147.72 56.2498 1147.9 56.1675C1148.08 56.0851 1148.24 55.967 1148.36 55.813C1148.49 55.659 1148.58 55.4728 1148.65 55.2544C1148.71 55.036 1148.75 54.7907 1148.75 54.5186C1148.75 54.2715 1148.71 54.0423 1148.65 53.8311C1148.58 53.6198 1148.48 53.4354 1148.34 53.2778C1148.21 53.1203 1148.04 52.9985 1147.85 52.9126C1147.66 52.8231 1147.44 52.7783 1147.19 52.7783C1146.85 52.7783 1146.6 52.8231 1146.43 52.9126C1146.26 53.0021 1146.09 53.1239 1145.91 53.2778Z" fill="black" fill-opacity="0.66"/>
<path d="M1139.91 5.60107H1140.62C1140.97 5.60107 1141.26 5.54378 1141.48 5.4292C1141.71 5.31104 1141.88 5.15169 1141.99 4.95117C1142.11 4.74707 1142.16 4.5179 1142.16 4.26367C1142.16 3.96289 1142.11 3.71045 1142.01 3.50635C1141.91 3.30225 1141.76 3.14827 1141.56 3.04443C1141.36 2.94059 1141.11 2.88867 1140.8 2.88867C1140.52 2.88867 1140.27 2.94417 1140.06 3.05518C1139.85 3.1626 1139.68 3.31657 1139.56 3.51709C1139.44 3.71761 1139.38 3.95394 1139.38 4.22607H1138.39C1138.39 3.82861 1138.49 3.46696 1138.69 3.14111C1138.89 2.81527 1139.17 2.55566 1139.53 2.3623C1139.9 2.16895 1140.32 2.07227 1140.8 2.07227C1141.27 2.07227 1141.69 2.15641 1142.04 2.32471C1142.39 2.48942 1142.67 2.73649 1142.87 3.06592C1143.06 3.39176 1143.16 3.79818 1143.16 4.28516C1143.16 4.4821 1143.12 4.69336 1143.02 4.91895C1142.93 5.14095 1142.79 5.34863 1142.6 5.54199C1142.41 5.73535 1142.16 5.89469 1141.86 6.02002C1141.55 6.14176 1141.19 6.20264 1140.76 6.20264H1139.91V5.60107ZM1139.91 6.41748V5.82129H1140.76C1141.26 5.82129 1141.67 5.88037 1142 5.99854C1142.32 6.1167 1142.58 6.27425 1142.76 6.47119C1142.95 6.66813 1143.09 6.88477 1143.16 7.12109C1143.24 7.35384 1143.28 7.58659 1143.28 7.81934C1143.28 8.18457 1143.22 8.50863 1143.09 8.7915C1142.97 9.07438 1142.8 9.31429 1142.57 9.51123C1142.35 9.70817 1142.09 9.85677 1141.79 9.95703C1141.49 10.0573 1141.16 10.1074 1140.8 10.1074C1140.46 10.1074 1140.14 10.0591 1139.84 9.9624C1139.55 9.86572 1139.28 9.72607 1139.05 9.54346C1138.82 9.35726 1138.65 9.12988 1138.52 8.86133C1138.39 8.58919 1138.32 8.27946 1138.32 7.93213H1139.32C1139.32 8.20426 1139.38 8.44238 1139.49 8.64648C1139.62 8.85059 1139.79 9.00993 1140.01 9.12451C1140.23 9.23551 1140.5 9.29102 1140.8 9.29102C1141.11 9.29102 1141.37 9.2391 1141.59 9.13525C1141.81 9.02783 1141.98 8.8667 1142.1 8.65186C1142.22 8.43701 1142.28 8.16667 1142.28 7.84082C1142.28 7.51497 1142.21 7.24821 1142.08 7.04053C1141.94 6.82926 1141.75 6.6735 1141.5 6.57324C1141.25 6.4694 1140.96 6.41748 1140.62 6.41748H1139.91ZM1149.56 5.4668V6.65918C1149.56 7.30013 1149.5 7.84082 1149.39 8.28125C1149.27 8.72168 1149.11 9.07617 1148.89 9.34473C1148.68 9.61328 1148.42 9.80843 1148.11 9.93018C1147.81 10.0483 1147.47 10.1074 1147.09 10.1074C1146.79 10.1074 1146.52 10.0698 1146.26 9.99463C1146.01 9.91943 1145.78 9.79948 1145.57 9.63477C1145.37 9.46647 1145.2 9.24805 1145.06 8.97949C1144.91 8.71094 1144.81 8.38509 1144.73 8.00195C1144.66 7.61882 1144.62 7.17122 1144.62 6.65918V5.4668C1144.62 4.82585 1144.67 4.28874 1144.79 3.85547C1144.91 3.4222 1145.07 3.07487 1145.29 2.81348C1145.5 2.5485 1145.76 2.35872 1146.06 2.24414C1146.37 2.12956 1146.71 2.07227 1147.08 2.07227C1147.39 2.07227 1147.67 2.10986 1147.92 2.18506C1148.18 2.25667 1148.41 2.37305 1148.61 2.53418C1148.81 2.69173 1148.98 2.90299 1149.12 3.16797C1149.26 3.42936 1149.37 3.74984 1149.45 4.12939C1149.52 4.50895 1149.56 4.95475 1149.56 5.4668ZM1148.56 6.82031V5.30029C1148.56 4.94938 1148.54 4.64144 1148.5 4.37646C1148.46 4.10791 1148.4 3.87874 1148.32 3.68896C1148.24 3.49919 1148.14 3.34521 1148.02 3.22705C1147.9 3.10889 1147.76 3.02295 1147.6 2.96924C1147.45 2.91195 1147.28 2.8833 1147.08 2.8833C1146.85 2.8833 1146.64 2.92806 1146.45 3.01758C1146.27 3.10352 1146.12 3.24137 1145.99 3.43115C1145.87 3.62093 1145.78 3.86979 1145.71 4.17773C1145.65 4.48568 1145.62 4.85986 1145.62 5.30029V6.82031C1145.62 7.17122 1145.64 7.48096 1145.68 7.74951C1145.72 8.01807 1145.78 8.25081 1145.86 8.44775C1145.95 8.64111 1146.05 8.80046 1146.16 8.92578C1146.28 9.05111 1146.42 9.14421 1146.57 9.20508C1146.73 9.26237 1146.9 9.29102 1147.09 9.29102C1147.34 9.29102 1147.55 9.24447 1147.73 9.15137C1147.92 9.05827 1148.07 8.91325 1148.19 8.71631C1148.31 8.51579 1148.41 8.25977 1148.47 7.94824C1148.53 7.63314 1148.56 7.25716 1148.56 6.82031Z" fill="black" fill-opacity="0.66"/>
<path d="M404.958 315.18V323H403.922V315.18H404.958ZM408.235 318.698V319.546H404.733V318.698H408.235ZM408.767 315.18V316.028H404.733V315.18H408.767ZM412.145 323.107C411.74 323.107 411.373 323.039 411.044 322.903C410.718 322.764 410.437 322.569 410.201 322.318C409.968 322.067 409.789 321.77 409.664 321.426C409.538 321.083 409.476 320.707 409.476 320.298V320.073C409.476 319.6 409.545 319.179 409.685 318.811C409.825 318.438 410.014 318.123 410.254 317.865C410.494 317.607 410.766 317.412 411.071 317.28C411.375 317.147 411.69 317.081 412.016 317.081C412.431 317.081 412.79 317.153 413.09 317.296C413.395 317.439 413.644 317.64 413.837 317.897C414.03 318.152 414.174 318.452 414.267 318.8C414.36 319.144 414.406 319.52 414.406 319.928V320.374H410.066V319.562H413.413V319.487C413.398 319.229 413.345 318.979 413.251 318.735C413.162 318.492 413.019 318.291 412.822 318.134C412.625 317.976 412.356 317.897 412.016 317.897C411.791 317.897 411.583 317.946 411.393 318.042C411.203 318.136 411.04 318.275 410.904 318.461C410.768 318.648 410.663 318.875 410.587 319.144C410.512 319.412 410.475 319.722 410.475 320.073V320.298C410.475 320.574 410.512 320.834 410.587 321.077C410.666 321.317 410.779 321.528 410.926 321.711C411.076 321.894 411.257 322.037 411.468 322.141C411.683 322.244 411.927 322.296 412.199 322.296C412.55 322.296 412.847 322.225 413.09 322.082C413.334 321.938 413.547 321.747 413.729 321.507L414.331 321.985C414.206 322.175 414.046 322.355 413.853 322.527C413.66 322.699 413.422 322.839 413.139 322.946C412.859 323.054 412.528 323.107 412.145 323.107ZM415.561 314.75H416.56V321.872L416.474 323H415.561V314.75ZM420.486 320.046V320.159C420.486 320.581 420.436 320.973 420.336 321.335C420.236 321.693 420.089 322.005 419.896 322.27C419.702 322.535 419.466 322.74 419.187 322.887C418.907 323.034 418.587 323.107 418.225 323.107C417.856 323.107 417.532 323.045 417.253 322.919C416.977 322.791 416.744 322.606 416.555 322.366C416.365 322.126 416.213 321.836 416.098 321.496C415.987 321.156 415.91 320.773 415.867 320.347V319.853C415.91 319.423 415.987 319.038 416.098 318.698C416.213 318.358 416.365 318.068 416.555 317.828C416.744 317.584 416.977 317.4 417.253 317.274C417.529 317.146 417.849 317.081 418.214 317.081C418.58 317.081 418.904 317.153 419.187 317.296C419.469 317.436 419.706 317.636 419.896 317.897C420.089 318.159 420.236 318.472 420.336 318.837C420.436 319.199 420.486 319.602 420.486 320.046ZM419.487 320.159V320.046C419.487 319.756 419.46 319.484 419.407 319.229C419.353 318.972 419.267 318.746 419.149 318.553C419.031 318.356 418.875 318.202 418.682 318.091C418.488 317.976 418.25 317.919 417.967 317.919C417.717 317.919 417.498 317.962 417.312 318.048C417.129 318.134 416.974 318.25 416.845 318.397C416.716 318.54 416.61 318.705 416.528 318.891C416.449 319.074 416.39 319.264 416.351 319.46V320.755C416.408 321.006 416.501 321.247 416.63 321.48C416.762 321.709 416.938 321.897 417.156 322.044C417.378 322.191 417.652 322.264 417.978 322.264C418.247 322.264 418.476 322.21 418.666 322.103C418.859 321.992 419.015 321.84 419.133 321.646C419.255 321.453 419.344 321.229 419.401 320.975C419.459 320.721 419.487 320.449 419.487 320.159Z" fill="black" fill-opacity="0.66"/>
<path d="M749.724 315.18H750.728L753.29 321.555L755.847 315.18H756.856L753.677 323H752.893L749.724 315.18ZM749.396 315.18H750.282L750.427 319.949V323H749.396V315.18ZM756.292 315.18H757.179V323H756.147V319.949L756.292 315.18ZM762.276 322.006V319.015C762.276 318.785 762.229 318.587 762.136 318.418C762.047 318.247 761.911 318.114 761.728 318.021C761.545 317.928 761.32 317.881 761.051 317.881C760.801 317.881 760.58 317.924 760.391 318.01C760.204 318.096 760.058 318.209 759.95 318.349C759.846 318.488 759.794 318.639 759.794 318.8H758.801C758.801 318.592 758.854 318.386 758.962 318.182C759.069 317.978 759.223 317.794 759.424 317.629C759.628 317.461 759.871 317.328 760.154 317.231C760.441 317.131 760.759 317.081 761.11 317.081C761.533 317.081 761.905 317.153 762.228 317.296C762.553 317.439 762.808 317.656 762.99 317.946C763.176 318.232 763.27 318.592 763.27 319.025V321.732C763.27 321.926 763.286 322.132 763.318 322.35C763.354 322.569 763.406 322.757 763.474 322.914V323H762.437C762.387 322.885 762.347 322.733 762.319 322.543C762.29 322.35 762.276 322.171 762.276 322.006ZM762.448 319.477L762.458 320.175H761.454C761.171 320.175 760.919 320.198 760.697 320.245C760.475 320.288 760.289 320.354 760.138 320.443C759.988 320.533 759.873 320.646 759.794 320.782C759.716 320.914 759.676 321.07 759.676 321.249C759.676 321.432 759.717 321.598 759.8 321.749C759.882 321.899 760.006 322.019 760.17 322.108C760.339 322.194 760.545 322.237 760.788 322.237C761.092 322.237 761.361 322.173 761.594 322.044C761.826 321.915 762.011 321.757 762.147 321.571C762.287 321.385 762.362 321.204 762.373 321.029L762.797 321.507C762.772 321.657 762.704 321.824 762.593 322.006C762.482 322.189 762.333 322.364 762.147 322.533C761.964 322.697 761.746 322.835 761.492 322.946C761.241 323.054 760.958 323.107 760.643 323.107C760.249 323.107 759.904 323.03 759.606 322.876C759.313 322.722 759.084 322.517 758.919 322.259C758.758 321.997 758.677 321.706 758.677 321.383C758.677 321.072 758.738 320.798 758.86 320.562C758.982 320.322 759.157 320.123 759.386 319.965C759.615 319.804 759.891 319.682 760.213 319.6C760.536 319.518 760.896 319.477 761.293 319.477H762.448ZM765.826 318.102V323H764.833V317.188H765.799L765.826 318.102ZM767.642 317.156L767.636 318.08C767.554 318.062 767.475 318.051 767.4 318.048C767.328 318.041 767.246 318.037 767.153 318.037C766.924 318.037 766.721 318.073 766.546 318.145C766.37 318.216 766.222 318.316 766.1 318.445C765.978 318.574 765.882 318.728 765.81 318.907C765.742 319.083 765.697 319.276 765.676 319.487L765.396 319.648C765.396 319.298 765.431 318.968 765.499 318.66C765.57 318.352 765.679 318.08 765.826 317.844C765.973 317.604 766.159 317.418 766.385 317.285C766.614 317.149 766.886 317.081 767.201 317.081C767.273 317.081 767.355 317.09 767.448 317.108C767.541 317.122 767.606 317.138 767.642 317.156ZM770.778 322.291C771.015 322.291 771.233 322.243 771.434 322.146C771.634 322.049 771.799 321.917 771.928 321.749C772.057 321.577 772.13 321.382 772.148 321.163H773.093C773.075 321.507 772.959 321.827 772.744 322.125C772.533 322.418 772.255 322.656 771.912 322.839C771.568 323.018 771.19 323.107 770.778 323.107C770.341 323.107 769.96 323.03 769.634 322.876C769.312 322.722 769.043 322.511 768.829 322.243C768.617 321.974 768.458 321.666 768.351 321.319C768.247 320.968 768.195 320.597 768.195 320.207V319.981C768.195 319.591 768.247 319.222 768.351 318.875C768.458 318.524 768.617 318.214 768.829 317.946C769.043 317.677 769.312 317.466 769.634 317.312C769.96 317.158 770.341 317.081 770.778 317.081C771.233 317.081 771.631 317.174 771.971 317.36C772.311 317.543 772.578 317.794 772.771 318.112C772.968 318.427 773.075 318.785 773.093 319.187H772.148C772.13 318.947 772.062 318.73 771.944 318.537C771.829 318.343 771.672 318.189 771.471 318.075C771.274 317.957 771.043 317.897 770.778 317.897C770.474 317.897 770.218 317.958 770.01 318.08C769.806 318.198 769.643 318.359 769.521 318.563C769.403 318.764 769.317 318.988 769.264 319.235C769.214 319.478 769.188 319.727 769.188 319.981V320.207C769.188 320.461 769.214 320.712 769.264 320.959C769.314 321.206 769.398 321.43 769.516 321.63C769.638 321.831 769.801 321.992 770.005 322.114C770.213 322.232 770.47 322.291 770.778 322.291ZM775.204 314.75V323H774.21V314.75H775.204ZM774.968 319.874L774.554 319.858C774.558 319.46 774.617 319.093 774.731 318.757C774.846 318.417 775.007 318.121 775.215 317.871C775.423 317.62 775.67 317.427 775.956 317.291C776.246 317.151 776.567 317.081 776.917 317.081C777.204 317.081 777.462 317.12 777.691 317.199C777.92 317.274 778.115 317.396 778.276 317.564C778.441 317.733 778.566 317.951 778.652 318.22C778.738 318.485 778.781 318.809 778.781 319.192V323H777.782V319.181C777.782 318.877 777.737 318.633 777.648 318.451C777.558 318.264 777.428 318.13 777.256 318.048C777.084 317.962 776.873 317.919 776.622 317.919C776.375 317.919 776.149 317.971 775.945 318.075C775.745 318.179 775.571 318.322 775.424 318.504C775.281 318.687 775.168 318.896 775.086 319.133C775.007 319.366 774.968 319.613 774.968 319.874Z" fill="black" fill-opacity="0.66"/>
<path d="M1111.26 315.873L1108.67 323H1107.62L1110.6 315.18H1111.28L1111.26 315.873ZM1113.43 323L1110.84 315.873L1110.82 315.18H1111.5L1114.5 323H1113.43ZM1113.3 320.105V320.954H1108.9V320.105H1113.3ZM1116.39 318.306V325.234H1115.39V317.188H1116.3L1116.39 318.306ZM1120.3 320.046V320.159C1120.3 320.581 1120.25 320.973 1120.15 321.335C1120.05 321.693 1119.9 322.005 1119.71 322.27C1119.52 322.535 1119.29 322.74 1119.01 322.887C1118.73 323.034 1118.41 323.107 1118.05 323.107C1117.68 323.107 1117.35 323.047 1117.07 322.925C1116.79 322.803 1116.55 322.626 1116.35 322.393C1116.15 322.16 1115.99 321.881 1115.88 321.555C1115.76 321.229 1115.68 320.862 1115.64 320.454V319.853C1115.68 319.423 1115.76 319.038 1115.88 318.698C1116 318.358 1116.16 318.068 1116.35 317.828C1116.55 317.584 1116.78 317.4 1117.06 317.274C1117.34 317.146 1117.67 317.081 1118.03 317.081C1118.4 317.081 1118.72 317.153 1119 317.296C1119.29 317.436 1119.52 317.636 1119.72 317.897C1119.91 318.159 1120.06 318.472 1120.15 318.837C1120.25 319.199 1120.3 319.602 1120.3 320.046ZM1119.3 320.159V320.046C1119.3 319.756 1119.27 319.484 1119.21 319.229C1119.15 318.972 1119.06 318.746 1118.93 318.553C1118.8 318.356 1118.64 318.202 1118.44 318.091C1118.25 317.976 1118.01 317.919 1117.74 317.919C1117.49 317.919 1117.27 317.962 1117.08 318.048C1116.9 318.134 1116.75 318.25 1116.62 318.397C1116.49 318.54 1116.38 318.705 1116.3 318.891C1116.22 319.074 1116.16 319.264 1116.12 319.46V320.852C1116.2 321.102 1116.3 321.339 1116.42 321.561C1116.55 321.779 1116.73 321.956 1116.94 322.092C1117.15 322.225 1117.43 322.291 1117.75 322.291C1118.02 322.291 1118.25 322.236 1118.44 322.125C1118.64 322.01 1118.8 321.854 1118.93 321.657C1119.06 321.46 1119.15 321.235 1119.21 320.98C1119.27 320.723 1119.3 320.449 1119.3 320.159ZM1122.56 318.102V323H1121.57V317.188H1122.54L1122.56 318.102ZM1124.38 317.156L1124.37 318.08C1124.29 318.062 1124.21 318.051 1124.14 318.048C1124.07 318.041 1123.98 318.037 1123.89 318.037C1123.66 318.037 1123.46 318.073 1123.28 318.145C1123.11 318.216 1122.96 318.316 1122.84 318.445C1122.72 318.574 1122.62 318.728 1122.55 318.907C1122.48 319.083 1122.43 319.276 1122.41 319.487L1122.13 319.648C1122.13 319.298 1122.17 318.968 1122.24 318.66C1122.31 318.352 1122.42 318.08 1122.56 317.844C1122.71 317.604 1122.9 317.418 1123.12 317.285C1123.35 317.149 1123.62 317.081 1123.94 317.081C1124.01 317.081 1124.09 317.09 1124.19 317.108C1124.28 317.122 1124.34 317.138 1124.38 317.156Z" fill="black" fill-opacity="0.66"/>
<rect x="41.25" y="244.25" width="360.5" height="48.5" stroke="#B5B5B5" stroke-width="0.5"/>
<rect x="41.25" y="196.25" width="360.5" height="47.5" stroke="#B5B5B5" stroke-width="0.5"/>
<rect x="41.25" y="147.25" width="360.5" height="48.5" stroke="#B5B5B5" stroke-width="0.5"/>
<rect x="41.25" y="99.25" width="360.5" height="47.5" stroke="#B5B5B5" stroke-width="0.5"/>
<rect x="402.25" y="244.25" width="361.5" height="48.5" stroke="#B5B5B5" stroke-width="0.5"/>
<rect x="402.25" y="196.25" width="361.5" height="47.5" stroke="#B5B5B5" stroke-width="0.5"/>
<rect x="402.25" y="147.25" width="361.5" height="48.5" stroke="#B5B5B5" stroke-width="0.5"/>
<rect x="402.25" y="99.25" width="361.5" height="47.5" stroke="#B5B5B5" stroke-width="0.5"/>
<rect x="764.25" y="244.25" width="360.5" height="48.5" stroke="#B5B5B5" stroke-width="0.5"/>
<rect x="764.25" y="196.25" width="360.5" height="47.5" stroke="#B5B5B5" stroke-width="0.5"/>
<rect x="764.25" y="147.25" width="360.5" height="48.5" stroke="#B5B5B5" stroke-width="0.5"/>
<rect x="764.25" y="99.25" width="360.5" height="47.5" stroke="#B5B5B5" stroke-width="0.5"/>
<rect x="41.25" y="53.25" width="360.5" height="45.5" stroke="#B5B5B5" stroke-width="0.5"/>
<rect x="402.25" y="53.25" width="361.5" height="45.5" stroke="#B5B5B5" stroke-width="0.5"/>
<rect x="764.25" y="53.25" width="360.5" height="45.5" stroke="#B5B5B5" stroke-width="0.5"/>
<rect x="41.25" y="5.25" width="360.5" height="47.5" stroke="#B5B5B5" stroke-width="0.5"/>
<rect x="402.25" y="5.25" width="361.5" height="47.5" stroke="#B5B5B5" stroke-width="0.5"/>
<rect x="764.25" y="5.25" width="360.5" height="47.5" stroke="#B5B5B5" stroke-width="0.5"/>
<path d="M1123.5 142.951V291.5H42.5V31.0378L402.054 142.932L402.296 143.008L402.55 142.999L764.5 131.001L1123.5 142.951Z" fill="url(#paint0_linear_10_125)" stroke="#54D8FF" stroke-width="3"/>
<circle cx="403" cy="144" r="4" fill="white" stroke="#54D8FF" stroke-width="2"/>
<circle cx="764" cy="131" r="4" fill="white" stroke="#54D8FF" stroke-width="2"/>
<circle cx="1122" cy="142" r="4" fill="white" stroke="#54D8FF" stroke-width="2"/>
<path d="M40.7347 178.524L39.5 178.745V180V293V294.5H41H1125H1126.5V293V72V70.169L1124.7 70.5293L764.41 142.852L400.118 114.005L399.925 113.989L399.735 114.024L40.7347 178.524Z" fill="url(#paint1_linear_10_125)" stroke="#F2F4A7" stroke-width="3"/>
<circle cx="1122" cy="72" r="4" fill="white" stroke="#F2F4A7" stroke-width="2"/>
<rect x="40" y="6" width="1086" height="287" stroke="white" stroke-width="8"/>
<circle cx="46" cy="34" r="4" fill="white" stroke="#54D8FF" stroke-width="2"/>
<circle cx="402" cy="113" r="4" fill="white" stroke="#F2F4A7" stroke-width="2"/>
<circle cx="764" cy="142" r="4" fill="white" stroke="#F2F4A7" stroke-width="2"/>
<line x1="45.9885" y1="290.016" x2="1122.01" y2="290.016" stroke="#B5B5B5"/>
<defs>
<linearGradient id="paint0_linear_10_125" x1="599" y1="119" x2="583" y2="293" gradientUnits="userSpaceOnUse">
<stop stop-color="#A7E3F4"/>
<stop offset="1" stop-color="white" stop-opacity="0"/>
</linearGradient>
<linearGradient id="paint1_linear_10_125" x1="599" y1="134.818" x2="585.757" y2="293.231" gradientUnits="userSpaceOnUse">
<stop stop-color="#F2F4A7" stop-opacity="0.47"/>
<stop offset="1" stop-color="white" stop-opacity="0"/>
</linearGradient>
</defs>
</svg>
